<?xml version="1.0" encoding="utf-8"?>
<!-- Generator: Adobe Illustrator 19.1.0, SVG Export Plug-In . SVG Version: 6.00 Build 0)  -->
<svg version="1.1" id="Layer_1" xmlns="http://www.w3.org/2000/svg" xmlns:xlink="http://www.w3.org/1999/xlink" x="0px" y="0px"
	 viewBox="0 0 100 100" style="enable-background:new 0 0 100 100;" xml:space="preserve">
<style type="text/css">
	.st32{fill:#D1AF79;}
	.st33{fill:#BF9E6D;}
	.st34{fill:#E8C992;}
</style>
<g>
	<g>
		<polygon class="st32" points="40.8,21.1 33.8,20.1 36.4,1 64.7,1 66.5,20.3 59.4,20.9 58.2,8.1 42.6,8.1 		"/>
	</g>
	<g>
		<polygon class="st32" points="63.5,15.3 54.5,14.9 45.5,14.9 36.6,14.8 23.8,12.9 23.9,61.7 77,63.3 77,12.9 		"/>
	</g>
	<g>
		<polygon class="st33" points="23.8,12.9 25.2,56.6 12.1,30.5 		"/>
	</g>
	<g>
		<polygon class="st33" points="76.3,12.9 74.4,58.1 87.9,30.5 		"/>
	</g>
	<g>
		<polygon class="st34" points="68.9,33.1 56.3,33.6 43.7,33.7 31.1,33.7 12.1,30.5 13.2,73.1 12.3,96.3 12.1,99 14.3,99 86,99 
			87.9,99 86.8,73.1 87.9,30.2 		"/>
	</g>
	<g>
		<polygon class="st34" points="61.4,40.3 59.8,20 41.1,20 39.5,38.4 30.6,37.9 32.9,12 68,12 70.3,39.8 		"/>
	</g>
</g>
</svg>
