<svg version="1.1" xmlns="http://www.w3.org/2000/svg" xmlns:xlink="http://www.w3.org/1999/xlink" x="0px" y="0px"
	 viewBox="0 0 100 100" style="enable-background:new 0 0 100 100;" xml:space="preserve">
<style type="text/css">
	.st52{fill:#EFEFEF;}
	.st53{fill:#1C1C1C;}
</style>
<path class="st52" d="M24.8,93.3c-0.2,0-0.3,0-0.5,0C7.5,93.1,6.5,80.7,5.8,71.6c-0.1-1.1-0.2-2.2-0.3-3.3l2.3-0.3
	c0.1,1.1,0.2,2.2,0.3,3.3C8.9,80.5,9.7,90.8,24.4,91c5.8,0.1,9.9-1.2,12.5-3.8c3.2-3.2,3.9-8.3,4-13v-3.7c0,0,0,0,0,0l1.1,0l-1-0.4
	c1.3-3.2,4.7-5.2,8.7-5.2h0.8c4,0,7.4,2.1,8.7,5.2l-1,0.4l1.1,0v3.9c0.1,4.7,0.7,9.5,3.9,12.7c2.6,2.7,6.8,4,12.6,4
	c0.1,0,0.1,0,0.2,0c14.2,0,15-9.6,15.9-18.8c0.1-1.4,0.2-2.8,0.4-4.1l2.3,0.3c-0.2,1.3-0.3,2.6-0.4,4c-0.8,9.3-1.9,21-18.2,21
	c-0.1,0-0.1,0-0.2,0c-6.5,0-11.2-1.6-14.3-4.8c-4.6-4.7-4.6-12-4.6-17.9c-1-2.2-3.5-3.6-6.4-3.6h-0.8c-2.9,0-5.4,1.4-6.4,3.6
	c0.1,6,0.1,13.5-4.7,18.2C35.5,91.9,31,93.3,24.8,93.3z"/>
<path class="st53" d="M42,74.1c-1.4,0-2.7-1-3.1-2.4c0,0-1-3.8-4.2-4.9c-2.4-0.7-5.7-1.2-10.1-1.2l-10.1,0.4c-0.1,0-0.2,0-0.3,0
	c-3.1,0.1-5.1,3.1-5.2,3.1c-0.6,1-1.8,1.5-3,1.4c-1.2-0.1-2.2-0.9-2.6-2l-1.6-4.2c-0.4-0.9-0.2-2,0.3-2.8c0.6-0.8,1.5-1.4,2.5-1.4
	l19.7-0.8c0,0,0.1,0,0.1,0c4.8,0,8.6,0.5,11.5,1.3c0.1,0,0.2,0,0.3,0.1c0.1,0,0.1,0,0.2,0.1c5.9,1.6,8.2,4.1,8.6,4.5
	c0.6,0.7,0.9,1.7,0.7,2.6l-0.6,3.6c-0.3,1.5-1.5,2.6-3,2.6C42.1,74.1,42.1,74.1,42,74.1z"/>
<path class="st52" d="M8.4,65.4H6c-0.6,0-1.2-0.5-1.2-1.2s0.5-1.2,1.2-1.2h2.4c0.6,0,1.2,0.5,1.2,1.2S9,65.4,8.4,65.4z"/>
<path class="st53" d="M58,74.1c0,0-0.1,0-0.1,0c-1.5,0-2.7-1.1-3-2.6l-0.6-3.6C54.1,67,54.4,66,55,65.3c0.3-0.4,2.7-2.9,8.6-4.5
	c0.1,0,0.1,0,0.2-0.1c0.1,0,0.2,0,0.3-0.1c2.9-0.8,6.7-1.3,11.5-1.3c0,0,0.1,0,0.1,0l19.7,0.8c1,0,1.9,0.6,2.5,1.4
	c0.6,0.8,0.7,1.9,0.3,2.8l-1.6,4.2c-0.4,1.1-1.4,1.9-2.6,2c-1.2,0.1-2.3-0.4-3-1.4c0,0-2.1-3-5.2-3.1c-0.1,0-0.2,0-0.3,0l-10.1-0.4
	c-4.5,0-7.8,0.5-10.2,1.2C62,68,61,71.7,61,71.7C60.7,73.2,59.4,74.1,58,74.1z"/>
<path class="st52" d="M94,65.4h-2.4c-0.6,0-1.2-0.5-1.2-1.2s0.5-1.2,1.2-1.2H94c0.6,0,1.2,0.5,1.2,1.2S94.6,65.4,94,65.4z"/>
</svg>
