<?xml version="1.0" encoding="utf-8"?>
<!-- Generator: Adobe Illustrator 19.2.1, SVG Export Plug-In . SVG Version: 6.00 Build 0)  -->
<svg version="1.1" xmlns="http://www.w3.org/2000/svg" xmlns:xlink="http://www.w3.org/1999/xlink" x="0px" y="0px"
	 viewBox="0 0 100 100" enable-background="new 0 0 100 100" xml:space="preserve">
	<path fill="#5994C9" d="M67.6,44.1l-3.3-0.4c-1-0.1-2-0.3-3.1-0.4c-0.3,0-0.6-0.1-0.9-0.1c-0.8-0.1-1.6-0.2-2.3-0.2
		c-0.3,0-0.6-0.1-0.9-0.1c-1-0.1-2-0.2-3-0.2c-0.2,0-0.4,0-0.6,0c-0.8-0.1-1.7-0.1-2.5-0.1c-0.2,0-0.3,0-0.5,0c0,0-0.1-0.1-0.1-0.1
		c-2.2-0.1-4.3-0.2-6.4-0.2c0,0,0,0,0,0c-2.1,0-4.3,0.1-6.4,0.2c0,0-0.1,0-0.1,0c-0.2,0-0.3,0-0.5,0c-0.8,0-1.7,0.1-2.5,0.1
		c-0.2,0-0.4,0-0.6,0c-1,0.1-2,0.1-3,0.2c-0.3,0-0.6,0.1-0.9,0.1c-0.8,0.1-1.6,0.1-2.3,0.2c-0.3,0-0.6,0.1-0.9,0.1
		c-1,0.1-2.1,0.2-3.1,0.4l-3.2,0.4c-3.5,0.5-6,3.1-6,6.2v12.9c0,3.1,2.5,5.7,6,6.2l3.3,0.4c2.3,0.3,4.7,0.6,7.1,0.8
		c0.3,0,0.6,0,0.9,0c3.4,0,6.5-1.8,8.1-4.6l4.3-8.5l4.3,8.5l0,0.1c1.5,2.9,4.7,4.6,8.1,4.6c0.3,0,0.6,0,0.9,0
		c2.4-0.2,4.8-0.5,7.1-0.8l3.3-0.4c3.5-0.5,6.1-3.1,6.1-6.2V50.2C73.6,47.1,71.1,44.6,67.6,44.1z M41.2,50.8l-6.3,12.6
		c-0.6,1.2-2.1,1.9-3.7,1.7c-2.3-0.2-4.6-0.5-6.8-0.8l-3.2-0.4c-1-0.1-1.3-0.6-1.3-0.8V50.2c0-0.1,0.4-0.6,1.3-0.8l3.3-0.4
		c1-0.1,2-0.3,2.9-0.4c0.3,0,0.6-0.1,0.9-0.1c0.7-0.1,1.5-0.2,2.2-0.2c0.3,0,0.6-0.1,0.8-0.1c1-0.1,2-0.2,2.9-0.2c0.2,0,0.4,0,0.5,0
		c0.8-0.1,1.6-0.1,2.5-0.1c0.2,0,0.4,0,0.6,0c1,0,1.9,0.4,2.6,1c0.4,0.4,0.8,0.9,0.8,1.8C41.2,50.7,41.2,50.7,41.2,50.8z M68.2,63.1
		c0,0.1-0.4,0.6-1.4,0.8l-3.3,0.4c-2.3,0.3-4.6,0.6-6.8,0.8c-1.6,0.1-3-0.6-3.7-1.7l-6.3-12.6c0-0.1,0-0.1,0-0.2
		c0-0.8,0.4-1.4,0.8-1.8c0.7-0.7,1.7-1,2.7-1c0.2,0,0.4,0,0.6,0c0.8,0,1.6,0.1,2.5,0.1c0.2,0,0.4,0,0.5,0c1,0.1,2,0.1,3,0.2
		c0.3,0,0.6,0.1,0.8,0.1c0.8,0.1,1.5,0.1,2.3,0.2c0.3,0,0.6,0.1,0.9,0.1c1,0.1,2,0.2,3,0.4l3.3,0.4c1,0.1,1.4,0.6,1.4,0.8V63.1z"/>
	<path fill="#5994C9" d="M54.6,76.2c0,2.7-2.2,4.9-4.9,4.9h-12c-2.7,0-4.9-2.2-4.9-4.9v-1.6c0-2.7,2.2-4.9,4.9-4.9h12
		c2.7,0,4.9,2.2,4.9,4.9V76.2z"/>
	<path fill="#F9914B" d="M61.1,99.1c-11.9,0-21.7-9.7-21.7-21.7c0-2.5,2-4.5,4.5-4.5c2.5,0,4.5,2,4.5,4.5c0,7,5.6,12.6,12.6,12.6
			c7,0,12.6-5.7,12.6-12.6V2.7h9.1v74.7C82.7,89.4,73,99.1,61.1,99.1z"/>
	<path opacity="0.4" fill="#FFFFFF" d="M45.3,54.3l5.2,10.3c1.1,2.1,3.7,3.4,6.3,3.2c2.3-0.2,4.7-0.5,7-0.8l3.3-0.4
		c2.2-0.3,3.8-1.8,3.8-3.5V50.2c0-1.7-1.6-3.2-3.8-3.5l-3.3-0.4c-6.6-0.9-13.3-1.3-20-1.3s-13.4,0.4-20,1.3l-3.4,0.4
		c-2.2,0.3-3.9,1.8-3.9,3.5v12.9c0,1.7,1.7,3.2,3.9,3.5l3.4,0.4c2.3,0.3,4.7,0.6,7,0.8c2.6,0.2,5.2-1,6.3-3.2l5.2-10.3l0,0
		C43.1,53.2,44.6,53.2,45.3,54.3L45.3,54.3z"/>
	<path fill="#5994C9" d="M82.7,5.5h-9.1c-1.3,0-2.3-1-2.3-2.3s1-2.3,2.3-2.3h9.1c1.3,0,2.3,1,2.3,2.3S83.9,5.5,82.7,5.5z"/>
	<path fill="#5994C9" d="M82.7,58.9h-9.1c-1.3,0-2.3-1-2.3-2.3c0-1.3,1-2.3,2.3-2.3h9.1c1.3,0,2.3,1,2.3,2.3
		C85,57.9,83.9,58.9,82.7,58.9z"/>
</svg>
