<svg version="1.1" xmlns="http://www.w3.org/2000/svg" xmlns:xlink="http://www.w3.org/1999/xlink" x="0px" y="0px"
	 viewBox="0 0 100 100" style="enable-background:new 0 0 100 100;" xml:space="preserve">
<style type="text/css">
	.st52{fill:#EFEFEF;}
</style>
	<path class="st52" d="M20.3,94.5c-8.3,0-15-6.7-15-15s6.7-15,15-15c8.3,0,15,6.7,15,15S28.6,94.5,20.3,94.5z M20.3,67.5
		c-6.6,0-12,5.4-12,12s5.4,12,12,12c6.6,0,12-5.4,12-12S27,67.5,20.3,67.5z"/>
	<path class="st52" d="M80.3,94.4c-8.2,0-14.8-6.7-14.8-14.8c0-8.2,6.7-14.8,14.8-14.8c8.2,0,14.8,6.7,14.8,14.8
		C95.2,87.7,88.5,94.4,80.3,94.4z M80.3,67.7c-6.5,0-11.8,5.3-11.8,11.8s5.3,11.8,11.8,11.8c6.5,0,11.8-5.3,11.8-11.8
		S86.9,67.7,80.3,67.7z"/>
	<path class="st52" d="M67,82h-8.4l0-1.5c0-0.8-0.5-7.5-8.1-7.5c-7.9,0-8.9,7.3-9,7.6L41.3,82L34,82v-3h4.8c0.9-3.7,4.2-9,11.7-9
		c7.5,0,10.3,5.2,10.9,9H67V82z"/>
	<circle class="st52" cx="4.5" cy="79.5" r="2"/>
	<circle class="st52" cx="95.8" cy="79.5" r="2"/>
</svg>
