<?xml version="1.0" encoding="utf-8"?>
<!-- Generator: Adobe Illustrator 19.2.1, SVG Export Plug-In . SVG Version: 6.00 Build 0)  -->
<svg version="1.1" xmlns="http://www.w3.org/2000/svg" xmlns:xlink="http://www.w3.org/1999/xlink" x="0px" y="0px"
	 viewBox="0 0 100 100" enable-background="new 0 0 100 100" xml:space="preserve">
	<g opacity="0.5">
		<path fill="#FFFFFF" d="M99.1,58.7c-0.5-0.8-1.3-1.2-2.3-1.3l-20.5-0.8c0,0-0.1,0-0.1,0c-5,0-9,0.6-12,1.4c0,0-0.1,0-0.1,0
			c-4.2,1.1-6.6,2.1-7.9,3.1c-1.8-1-3.9-2.1-6.1-2.1h-0.8c-2.3,0-4.4,1.1-6.1,2.1c-1.3-1-3.7-2.3-7.9-3.4c0,0-0.1,0.1-0.1,0.1
			c-3-0.8-7-1.3-12-1.3c0,0-0.1,0-0.1,0L2.7,57.4c-0.9,0-1.8,0.5-2.3,1.3c-0.5,0.8-0.6,1.7-0.3,2.6l1.6,4.4c0,0.1,0.1,0.2,0.1,0.3
			c0.1,1,0.2,2,0.3,3C3,78.5,4.1,92.8,23.1,93c0.2,0,0.4,0,0.5,0c6.9,0,11.9-1.7,15.4-5.2c5.2-5.2,5.4-12.9,5.3-19.4l0.1-0.7
			c0.9-1.5,2.8-2.7,5-2.7h0.8c2.2,0,4.1,1.3,5,2.7l0.1,0.5c-0.1,6.3,0.1,14,5.2,19.2c3.6,3.6,8.8,5.5,16,5.5c0.1,0,0.1,0,0.2,0
			c18.5,0,19.7-14,20.6-23.3c0.1-1.3,0.2-2.6,0.4-3.8c0.1-0.1,0.1-0.2,0.1-0.3l1.6-4.3C99.7,60.4,99.6,59.5,99.1,58.7z M34.7,83.8
			c-2.4,2.4-6.2,3.6-11.7,3.5C10.2,87.2,8.7,79.8,7.8,68.5c-0.1-1.1-0.1-2.2-0.2-3.2c0.9-1,2.7-2.4,5-2.5c0.1,0,0.2,0,0.3,0
			l10.5-0.4c4.6,0,7.8,0.5,10.3,1.2c3,1,3.3,4.1,4.3,5.1v3C38,76.2,37.6,80.9,34.7,83.8z M76.7,87c-0.1,0-0.1,0-0.2,0
			c-5.6,0-10-1.1-12.4-3.6c-2.9-2.9-4-7.3-4-11.9v-2.9c0-1,2.1-4.1,5-5c2.5-0.7,6.3-1.2,10.9-1.2l10.6,0.4c0.1,0,0.3,0,0.4,0
			c2.3,0.1,4,1.6,5,2.5c-0.2,1.3-0.3,2.4-0.4,3.8C90.5,80.3,89,87,76.7,87z"/>
	</g>
	<path fill="#FFFFFF" d="M6.5,62.4H4.1c-0.7,0-1.2-0.5-1.2-1.2s0.5-1.2,1.2-1.2h2.4c0.7,0,1.2,0.5,1.2,1.2S7.2,62.4,6.5,62.4z"/>
	<path fill="#FFFFFF" d="M95.5,62.4H93c-0.7,0-1.2-0.5-1.2-1.2s0.5-1.2,1.2-1.2h2.4c0.7,0,1.2,0.5,1.2,1.2S96.2,62.4,95.5,62.4z"/>
</svg>
