<?xml version="1.0" encoding="utf-8"?>
<!-- Generator: Adobe Illustrator 19.2.1, SVG Export Plug-In . SVG Version: 6.00 Build 0)  -->
<svg version="1.1" xmlns="http://www.w3.org/2000/svg" xmlns:xlink="http://www.w3.org/1999/xlink" x="0px" y="0px"
	 viewBox="0 0 100 100" enable-background="new 0 0 100 100" xml:space="preserve">
	<g opacity="0.8">
		<polygon fill="#222222" points="4.3,65.1 7.1,80.9 14.3,88.6 26.2,90.1 35.6,87.1 40.7,79.3 41.6,68.1 36.6,61.7 19.7,60.5
			5.4,60.5 			"/>
	</g>
	<g opacity="0.8">
		<polygon fill="#222222" points="95.6,65.1 92.8,80.9 85.6,88.6 73.7,90.1 64.3,87.1 59.2,79.3 58.3,68.1 63.3,61.7 80.2,60.5
			94.5,60.5 			"/>
	</g>
	<g opacity="0.5">

			<rect x="2.8" y="67.4" transform="matrix(0.705 -0.7092 0.7092 0.705 -45.0454 33.1101)" fill="#FFFFFF" width="28.9" height="6.5"/>
	</g>
	<g opacity="0.5">

			<rect x="7.5" y="73.1" transform="matrix(0.7071 -0.7071 0.7071 0.7071 -45.423 39.8689)" fill="#FFFFFF" width="35.9" height="3.3"/>
	</g>
	<g opacity="0.5">

			<rect x="56" y="66.6" transform="matrix(0.705 -0.7092 0.7092 0.705 -28.7804 70.5742)" fill="#FFFFFF" width="28.9" height="6.5"/>
	</g>
	<g opacity="0.5">

			<rect x="60.6" y="72.3" transform="matrix(0.7071 -0.7071 0.7071 0.7071 -29.2736 77.2213)" fill="#FFFFFF" width="35.9" height="3.3"/>
	</g>
	<path fill="#222222" d="M23.7,93c-0.2,0-0.4,0-0.5,0C4.1,92.8,3,78.4,2.2,68.9c-0.1-1.2-0.2-2.3-0.3-3.4l5.7-0.6
		c0.1,1.1,0.2,2.3,0.3,3.5c0.9,11.3,2.5,18.7,15.3,18.9c5.5,0.1,9.5-1.1,11.9-3.5c2.9-2.9,3.6-7.6,3.7-12.3v-4c0,0,0,0,0,0l2.8,0
		l-2.6-1c1.6-3.9,5.8-6.5,10.6-6.5h0.8c4.8,0,9,2.5,10.6,6.5l-2.5,1l2.7,0v4c0.1,4.6,0.7,9.2,3.6,12.1c2.4,2.5,6.4,3.7,12,3.7
		c0.1,0,0.1,0,0.2,0c12.4,0,13.9-6.9,14.9-18.1c0.1-1.5,0.3-2.9,0.4-4.3l5.7,0.7c-0.2,1.3-0.3,2.6-0.4,4.1
		C96.7,79,95.4,93,76.9,93c-0.1,0-0.1,0-0.2,0c-7.2,0-12.5-1.8-16-5.4c-5.2-5.3-5.3-13-5.2-19.5c-0.9-1.5-2.8-2.5-5-2.5h-0.8
		c-2.3,0-4.2,1-5,2.5c0.1,6.5,0,14.4-5.3,19.7C35.6,91.3,30.6,93,23.7,93z"/>
	<path fill="#1C1C1C" d="M41.6,71c-1.3,0-2.5-0.9-2.8-2.2c0,0-1.1-4.2-4.7-5.4c-2.5-0.7-6-1.2-10.7-1.2l-10.5,0.4
		c-0.1,0-0.2,0-0.3,0c-3.4,0.2-5.7,3.4-5.7,3.5c-0.6,0.9-1.7,1.4-2.7,1.2c-1.1-0.1-2-0.8-2.3-1.8l-1.6-4.4
		c-0.3-0.9-0.2-1.8,0.3-2.6c0.5-0.8,1.3-1.2,2.3-1.3l20.5-0.9c0,0,0.1,0,0.1,0c5,0,9,0.6,12,1.4c0,0,0.1,0,0.1,0
		c6.2,1.6,8.6,4.2,8.9,4.6c0.6,0.6,0.8,1.5,0.6,2.3l-0.6,3.8C44.2,69.9,43.1,70.9,41.6,71C41.7,71,41.6,71,41.6,71z"/>
	<path fill="#1C1C1C" d="M58.2,71c0,0-0.1,0-0.1,0c-1.3-0.1-2.5-1-2.7-2.4l-0.6-3.8c-0.1-0.8,0.1-1.7,0.6-2.3
		c0.4-0.4,2.7-3,8.9-4.6c0,0,0.1,0,0.1,0c3-0.8,7-1.4,12-1.4c0,0,0.1,0,0.1,0l20.5,0.9c0.9,0,1.8,0.5,2.3,1.3
		c0.5,0.8,0.6,1.7,0.3,2.6L98,65.5c-0.4,1-1.3,1.7-2.4,1.8c-1.1,0.1-2.1-0.4-2.7-1.3c0,0-2.3-3.3-5.7-3.5c-0.1,0-0.2,0-0.3,0
		l-10.5-0.4c-4.7,0-8.2,0.6-10.7,1.2c-3.6,1.2-4.7,5.3-4.7,5.4C60.7,70.1,59.5,71,58.2,71z"/>
</svg>
