<svg xmlns="http://www.w3.org/2000/svg" width="100" height="100" viewBox="0 0 100 100">
  <g opacity="0.8">
    <rect x="10.14" y="69.92" width="32.63" height="21.75" fill="#5994c9"/>
  </g>
  <g opacity="0.8">
    <rect x="56.75" y="69.92" width="32.63" height="20.98" fill="#fc5959"/>
  </g>
  <path d="M49.76,67.59H3.15V90.12h3A3.77,3.77,0,0,0,10,94H41.83a4.35,4.35,0,0,0,3.79-2.38A4.77,4.77,0,0,1,49.88,89m0,0a5.11,5.11,0,0,1,4.47,2.61A4.47,4.47,0,0,0,58.21,94H90.06a3.77,3.77,0,0,0,3.88-3.88h3.21V67.59H49.76M42,84.13a6,6,0,0,1-6,6H18.45a6,6,0,0,1-6-6V77.45a6,6,0,0,1,6-6H36a6,6,0,0,1,6,6Zm45.83,0a6,6,0,0,1-6,6H64.29a6,6,0,0,1-6-6V77.45a6,6,0,0,1,6-6H81.84a6,6,0,0,1,6,6Z" fill="#fff"/>
  <path d="M49.76,67.59H3.15V90.12h3A3.77,3.77,0,0,0,10,94H41.83a4.35,4.35,0,0,0,3.79-2.38A4.77,4.77,0,0,1,49.88,89m0,0a5.11,5.11,0,0,1,4.47,2.61A4.47,4.47,0,0,0,58.21,94H90.06a3.77,3.77,0,0,0,3.88-3.88h3.21V67.59H49.76M42,84.13a6,6,0,0,1-6,6H18.45a6,6,0,0,1-6-6V77.45a6,6,0,0,1,6-6H36a6,6,0,0,1,6,6Zm45.83,0a6,6,0,0,1-6,6H64.29a6,6,0,0,1-6-6V77.45a6,6,0,0,1,6-6H81.84a6,6,0,0,1,6,6Z" fill="#fff"/>
</svg>
