<?xml version="1.0" encoding="utf-8"?>
<!-- Generator: Adobe Illustrator 19.2.1, SVG Export Plug-In . SVG Version: 6.00 Build 0)  -->
<svg version="1.1" xmlns="http://www.w3.org/2000/svg" xmlns:xlink="http://www.w3.org/1999/xlink" x="0px" y="0px"
	 viewBox="0 0 100 100" enable-background="new 0 0 100 100" xml:space="preserve">
<path fill="#F2CC7B" d="M26.9,94.4c-1.1,0-2.1-0.1-3.2-0.2c-6.4-1-11.7-5.8-15.3-13.9C5.8,74.4,5,68.8,5,68.5l2.3-0.3
	c0,0.2,3.2,21.6,16.8,23.7c4.7,0.7,9.4-0.4,12.8-3c2.6-2,4.3-4.7,4.7-7.7l0-0.2c0.5-4.1,4.3-7,9-7c4.7,0,8.5,3,9,7l0,0.1
	c0.4,3,2,5.7,4.7,7.7c3.5,2.6,8.1,3.7,12.8,3c13.7-2.1,16.8-23.5,16.8-23.7l2.3,0.3c0,0.2-0.8,5.8-3.5,11.8
	c-3.6,8.1-8.9,12.9-15.3,13.9c-5.3,0.8-10.6-0.4-14.6-3.4c-3.1-2.4-5.1-5.7-5.5-9.2l0-0.1c-0.3-2.9-3.2-5-6.7-5s-6.4,2.1-6.7,5
	l0,0.2c-0.4,3.5-2.4,6.8-5.5,9.2C35.1,93.2,31.1,94.4,26.9,94.4z"/>
<path fill="#FFFFFF" d="M42.6,80.8c-1.5,0-2.8-1.1-3-2.6c-0.7-5-5-8.6-11.1-9.3c-8.8-1-21.4,2.4-21.5,2.5
	c-1.6,0.5-3.3-0.5-3.8-2.1s0.5-3.3,2.1-3.8c0.6-0.2,13.9-3.9,23.9-2.7c8.9,1.1,15.3,6.8,16.5,14.5c0.2,1.7-0.9,3.2-2.6,3.5
	C42.9,80.8,42.8,80.8,42.6,80.8z"/>
<path fill="#F2CC7B" d="M6.6,69.3c-0.5,0-1-0.4-1.1-0.9c-0.1-0.6,0.2-1.2,0.9-1.4L8,66.6c0.6-0.1,1.2,0.2,1.4,0.9
	c0.1,0.6-0.2,1.2-0.9,1.4l-1.7,0.4C6.8,69.3,6.7,69.3,6.6,69.3z"/>
<path fill="#FFFFFF" d="M58.3,80.8c-0.1,0-0.3,0-0.5,0c-1.7-0.2-2.8-1.8-2.6-3.5c1.1-7.8,7.6-13.5,16.5-14.5
	c10-1.2,23.3,2.5,23.9,2.7c1.6,0.5,2.6,2.1,2.1,3.8c-0.5,1.6-2.1,2.6-3.8,2.1c-0.1,0-12.8-3.5-21.5-2.5
	c-6.1,0.7-10.4,4.3-11.1,9.3C61.1,79.7,59.8,80.8,58.3,80.8z"/>
<path fill="#F2CC7B" d="M94.4,69.3c-0.1,0-0.2,0-0.3,0l-1.7-0.4c-0.6-0.1-1-0.8-0.9-1.4c0.1-0.6,0.8-1,1.4-0.9l1.7,0.4
		c0.6,0.1,1,0.8,0.9,1.4C95.4,68.9,94.9,69.3,94.4,69.3z"/>
</svg>
