<?xml version="1.0" encoding="utf-8"?>
<!-- Generator: Adobe Illustrator 19.2.1, SVG Export Plug-In . SVG Version: 6.00 Build 0)  -->
<svg version="1.1" xmlns="http://www.w3.org/2000/svg" xmlns:xlink="http://www.w3.org/1999/xlink" x="0px" y="0px"
	 viewBox="0 0 100 100" enable-background="new 0 0 100 100" xml:space="preserve">
	<path fill="#A5C6EF" d="M98.5,58.6c-6.4-2.8-12-4.2-15.9-5c-1.2-0.3-2.4-0.5-3.7-0.6c-0.8-0.1-2.5-0.2-2.6-0.2
		c-7.4,0-13.9,4.1-17.4,10c-1.8-1.2-5-2.8-9-2.8c-3.9,0-7.2,1.7-9,2.8c-3.5-6-10-10.1-17.4-10.1c0,0-0.1,0-0.1,0
		c-0.9,0-1.8,0.1-2.6,0.3c-1.2,0.1-2.4,0.4-3.5,0.6c-4,0.7-9.5,2.2-15.9,5C0.6,59,0,60,0,61v2c0,0.8,0.3,1.5,0.9,2
		c1.1,0.9,2.3,3.3,2.7,6.5c0,0.1,0,0.1,0,0.2c0,0.4,0,0.9,0,1.3C3.6,84,12.6,93,23.7,93h0c5.4,0,10.4-2.1,14.2-5.9
		c3.8-3.8,5.9-8.8,5.9-14.2c0-1.8-0.2-3.6-0.7-5.3c0.7-0.6,3.5-2.5,6.9-2.5c3.4,0,6.2,1.9,6.9,2.5c-0.5,1.7-0.7,3.4-0.7,5.3
		c0,11.1,9,20.1,20.1,20.1s20.1-9,20.1-20.1c0-0.4,0-0.8,0-1.2c0-0.1,0-0.2,0.1-0.3c0.3-3.2,1.6-5.6,2.7-6.5c0.6-0.5,0.9-1.2,0.9-2
		v-2C100,60,99.4,59,98.5,58.6z M34.2,83.5c-2.8,2.8-6.6,4.4-10.6,4.4c-8.2,0-15-6.7-15-15c0-7.1,5-13.1,11.7-14.6
		c1.9-0.3,3-0.3,3.2-0.4c8.2,0,14.9,6.7,14.9,15C38.6,76.9,37.1,80.7,34.2,83.5z M76.3,87.9c-8.2,0-15-6.7-15-15
		c0-8.2,6.7-15,15-15c0.1,0,1.2,0.1,3.1,0.3c6.7,1.4,11.8,7.4,11.8,14.6C91.2,81.2,84.5,87.9,76.3,87.9z"/>
	<path fill="#EFEFEF" d="M95.7,62.8h-2.6c-0.7,0-1.3-0.6-1.3-1.3c0-0.7,0.6-1.3,1.3-1.3h2.6c0.7,0,1.3,0.6,1.3,1.3
		C97,62.3,96.4,62.8,95.7,62.8z"/>
	<path fill="#EFEFEF" d="M6.8,62.8H4.3c-0.7,0-1.3-0.6-1.3-1.3c0-0.7,0.6-1.3,1.3-1.3h2.6c0.7,0,1.3,0.6,1.3,1.3
				C8.1,62.3,7.5,62.8,6.8,62.8z"/>
</svg>
