<svg version="1.1" id="Layer_1" xmlns="http://www.w3.org/2000/svg" xmlns:xlink="http://www.w3.org/1999/xlink" x="0px" y="0px"
	 viewBox="0 0 100 100" style="enable-background:new 0 0 100 100;" xml:space="preserve">
<style type="text/css">
	.st19{fill:#FFFFFF;}
	.st20{fill:#E5E5E5;}
</style>
<path class="st19" d="M80,60.2H19.8v32.4c0,1.2,0.8,2.2,2,2.4l2.2,0.4c17.8,3.6,36.2,3.4,54-0.4l0,0c1.1-0.3,2-1.3,2-2.4V60.2z"/>
<ellipse class="st19" cx="49.9" cy="41.8" rx="47.5" ry="28.8"/>
<path class="st20" d="M73.8,50.2c-2.3,4.7-0.5,13.2-0.5,13.2s7.8-3.9,10.1-8.5s0.8-7.1-1.8-8.4S76.1,45.5,73.8,50.2z"/>
<path class="st20" d="M59,54.3c-0.7,3.9,2.4,9.8,2.4,9.8s4.9-4.5,5.6-8.4c0.7-3.9-0.9-5.4-3.1-5.8C61.7,49.6,59.7,50.4,59,54.3z"/>
<path class="st20" d="M46.1,56.2c0,3.9,4,8.9,4,8.9s3.9-5.1,3.9-9s-1.8-5-4-5C47.8,51.1,46,52.3,46.1,56.2z"/>
<path class="st20" d="M25.5,50.2c2.3,4.7,0.5,13.2,0.5,13.2s-7.8-3.9-10.1-8.5s-0.8-7.1,1.8-8.4S23.2,45.5,25.5,50.2z"/>
<path class="st20" d="M40.3,54.3c0.7,3.9-2.4,9.8-2.4,9.8s-4.9-4.5-5.6-8.4c-0.7-3.9,0.9-5.4,3.1-5.8C37.6,49.6,39.6,50.4,40.3,54.3
	z"/>
</svg>
