<svg version="1.1" id="Layer_1" xmlns="http://www.w3.org/2000/svg" xmlns:xlink="http://www.w3.org/1999/xlink" x="0px" y="0px"
	 viewBox="0 0 100 100" style="enable-background:new 0 0 100 100;" xml:space="preserve">
<style type="text/css">
	.st44{fill:#444444;}
	.st59{fill:#808080;}
</style>
<path class="st44" d="M50.5,96.3c-17,0-31.6-2.9-38.9-7.2c-2.6-1.3-4.3-3.7-4.3-7c0-4.5,3.3-8.4,8.4-8.4l0,0c0,0,6.8-19.1,11-25.7
	c2.5-3.9,7-6.2,11.7-6.1c4.6,0.2,10,2.9,12.3,2.9S58.5,42.1,63,42c4.7-0.2,9.1,2.1,11.7,6.1c4.2,6.6,11,25.7,11,25.7l0,0
	c5.1,0,8.4,3.9,8.4,8.4c0,3.2-1.7,5.7-4.3,7C82.6,93.5,68,96.3,51,96.3H50.5z"/>
<path class="st59" d="M19.7,63.1c-1.6,3.4-4,10.6-4.4,10.6c6.2,4.1,19.6,6.9,35.2,6.9c15.6,0,29-2.8,35.2-6.9c0,0-2.6-7.7-4.2-11.1
	c-7,3.2-17.6,5.2-31,5.2S26.7,66.2,19.7,63.1z"/>
</svg>
