<?xml version="1.0" encoding="utf-8"?>
<!-- Generator: Adobe Illustrator 19.2.1, SVG Export Plug-In . SVG Version: 6.00 Build 0)  -->
<svg version="1.1" xmlns="http://www.w3.org/2000/svg" xmlns:xlink="http://www.w3.org/1999/xlink" x="0px" y="0px"
	 viewBox="0 0 100 100" enable-background="new 0 0 100 100" xml:space="preserve">
<g id="Layer_1">
	<g>
		<path fill="#FFEAAE" d="M16.7,84.8c0,3.9,18.1,7,40.8,7s39.6-3.1,39.6-7v-1.6c0-22.3-17-40.3-39.6-40.3S16.6,61,16.6,83.3
			L16.7,84.8z"/>
	</g>
	<g>
		<path fill="#75C69F" d="M58.4,42.9c-23.6,0-42.6,18.1-42.6,40.3l0.1,1.6c0,2.6,2.4,4,15.4,5.2C31.8,63.2,39.5,47.1,58.4,42.9z"/>
	</g>
	<g>
		<path fill="#FC5959" d="M56.8,42.9C81.1,42.7,99.4,61,99.4,83.3l-0.1,1.6c0,2.6-13.2,4.9-26.2,6.1C72.7,64.1,68.9,50.3,56.8,42.9z
			"/>
	</g>
	<g>
		<path fill="#238BD8" d="M88.6,88.9c1.4,0.1-4.8,3.5-20.2,8.5c-9.4,3-30.8-2.6-41.8-3.3S5.1,96.6,2.1,97C1.3,97.1,1,96,1.7,95.6
			l14.3-10.8c0,0,15.4-3.2,28.7-2.9C61.8,82.3,88.6,88.9,88.6,88.9z"/>
	</g>
	<g>
		<path fill="#238BD8" d="M57.4,44.7c-1,0-1.8-0.8-1.8-1.8V30.7c0-1,0.8-1.8,1.8-1.8s1.8,0.8,1.8,1.8v12.2
			C59.2,43.9,58.4,44.7,57.4,44.7z"/>
	</g>
	<g>
		<path fill="#F2F2F2" d="M90.9,30.7c0-4.8-4.3-8.6-14.1-8.6s-21.2,8.6-21.2,8.6s11.5,8.6,21.2,8.6S90.9,35.4,90.9,30.7z"/>
	</g>
	<g>
		<path fill="#F2F2F2" d="M23.8,30.7c0,4.8,4.3,8.6,14.1,8.6s21.2-8.6,21.2-8.6s-11.5-8.6-21.2-8.6S23.8,25.9,23.8,30.7z"/>
	</g>
	<g>
		<circle fill="#238BD8" cx="57.4" cy="30.7" r="4.3"/>
	</g>
</g>
<g id="eyes">
</g>
<g id="blink">
</g>
</svg>
