<svg version="1.1" id="Layer_1" xmlns="http://www.w3.org/2000/svg" xmlns:xlink="http://www.w3.org/1999/xlink" x="0px" y="0px"
	 viewBox="0 0 100 100" style="enable-background:new 0 0 100 100;" xml:space="preserve">
<style type="text/css">
	.st42{fill:#4B9AE2;}
	.st43{fill:#238BD8;}
	.st44{fill:none;stroke:#4B9AE2;stroke-miterlimit:10;}
</style>
<g>
	<path class="st42" d="M16.9,83.7c0,3.6,17.8,6.6,40.1,6.6s38.9-2.9,38.9-6.6v-1.5c0-21-16.7-38-38.9-38s-40.2,17-40.2,38L16.9,83.7
		z"/>
	<path class="st43" d="M87.8,87.8c1.3,0.1-6,3.1-20.5,7.7c-8.9,2.8-29-2.5-39.4-3.1c-10.4-0.6-20.3,2.4-23.1,2.7
		c-0.7,0.1-1.1-0.9-0.4-1.3l14.1-10.2c0,0,13.9-3.1,26.5-2.8C61,81.4,87.8,87.8,87.8,87.8z"/>
	<path class="st43" d="M57,42h-2.6c-1.1,0-2.2,0.3-2.2,1.5c0.1,1.2,1,1.5,2.2,1.5H57c1.1,0,2.2-0.3,2.2-1.5C59.1,42.3,58.2,42,57,42
		z"/>
	<path class="st43" d="M36.3,68.2c-0.4-0.5-0.4-1.1,0.1-1.5c1.5-1.6,5.5-5.1,10-4.9c5.8,0.2,10.3,6.5,10.3,6.5s-4.9,5.9-10.7,5.7
		C41.4,73.7,37.7,69.9,36.3,68.2z"/>
	<path class="st43" d="M59.1,74.1L52.8,69c-0.6-0.5-0.6-1.4,0.1-1.8l6.7-4.6c0.8-0.5,1.8,0,1.8,1l-1.6,4.9l1.3,4.8
		C61,74.2,59.9,74.7,59.1,74.1z"/>
	<line class="st44" x1="45" y1="69.2" x2="41.4" y2="65.8"/>
	<line class="st44" x1="44.9" y1="65.7" x2="41.5" y2="69.3"/>
</g>
</svg>
