<?xml version="1.0" encoding="utf-8"?>
<!-- Generator: Adobe Illustrator 19.2.1, SVG Export Plug-In . SVG Version: 6.00 Build 0)  -->
<svg version="1.1" xmlns="http://www.w3.org/2000/svg" xmlns:xlink="http://www.w3.org/1999/xlink" x="0px" y="0px"
	 viewBox="0 0 100 100" enable-background="new 0 0 100 100" xml:space="preserve">
<g id="Layer_1">
	<path fill="#987FEF" d="M73.8,82.7C73.5,69.5,97.5,47.6,50,47.6H50c-47.6,0-23.5,21.8-23.8,35.1H73.8z"/>
	<g>
		<path fill="#FFEAAE" d="M85.2,80.4l-7.4-1.9l6.2-23.7c1-3.8-1-6.7-2.3-8.1c-3.4-3.7-9.4-5.4-15.1-4.3L50,45.4l-16.5-3.1
			c-5.7-1.1-11.7,0.6-15.1,4.3c-1.3,1.4-3.3,4.2-2.3,8.1l6.2,23.7l-7.4,1.9L8.7,56.7c-1.4-5.4,0.1-10.9,4.1-15.2
			c5.3-5.6,13.7-8.2,22.1-6.6L50,37.7l15.1-2.8c8.4-1.6,16.8,1,22.1,6.6c4,4.3,5.5,9.8,4.1,15.2L85.2,80.4z"/>
	</g>
	<path fill="#FFEAAE" d="M80.9,75.4c-20.6,2.5-41.3,2.5-61.9,0l-4.2-0.5v4.3L16,90.7l3,0.4c9.8,1.3,20.3,1.9,30.9,1.9
		c10.6,0,21.2-0.6,31-1.9l2.9-0.4l1.3-10.8l0-5L80.9,75.4z"/>
	<g>
		<rect x="46.2" y="40.6" fill="#FFEAAE" width="7.6" height="38.2"/>
	</g>
	<circle fill="#987FEF" cx="68.9" cy="84.7" r="3.2"/>
	<circle fill="#987FEF" cx="31.9" cy="84.7" r="3.2"/>
	<circle fill="#FFFFFF" cx="16.3" cy="83.4" r="3.2"/>
	<circle fill="#FFFFFF" cx="50.2" cy="85.4" r="3.2"/>
	<circle fill="#FFFFFF" cx="83.7" cy="83.4" r="3.2"/>
	<path fill="#FFFFFF" d="M54.9,38c0-2.7-2.2-4.9-4.9-4.9s-4.9,2.2-4.9,4.9H54.9z"/>
	<g>
		<path fill="#FFEAAE" d="M72,80.2l-7.5-1.5l4.8-23.9c1.1-4.4-0.3-6-0.8-6.5c-3.4-3.7-13.4-3.6-17.8-2.9l-1.1,0l-0.3,0
			c-3.5-0.5-14.2-1.1-17.8,2.9c-0.5,0.5-1.9,2.1-0.8,6.5l0,0.2l4.7,23.7L28,80.2l-4.7-23.7c-1.7-6.8,0.4-11,2.6-13.4
			c6.6-7.3,21.1-5.8,24.2-5.4c3.1-0.4,17.6-1.9,24.2,5.4c2.1,2.3,4.3,6.6,2.6,13.4L72,80.2z"/>
	</g>
</g>
<g id="eyes">
</g>
<g id="blink">
</g>
</svg>
