<?xml version="1.0" encoding="utf-8"?>
<!-- Generator: Adobe Illustrator 19.2.1, SVG Export Plug-In . SVG Version: 6.00 Build 0)  -->
<svg version="1.1" xmlns="http://www.w3.org/2000/svg" xmlns:xlink="http://www.w3.org/1999/xlink" x="0px" y="0px"
	 viewBox="0 0 100 100" enable-background="new 0 0 100 100" xml:space="preserve">
<g id="Layer_1">
	<path fill="#FFFFFF" d="M100,59.4c-0.1-0.8-0.1-1.5-0.2-2.3c-0.2-2.1-0.4-4.3-0.7-6.4c-0.1-0.5-0.1-0.9-0.2-1.4
		c-0.3-2.3-1.9-4.1-4.1-4.7c-7-1.9-23.5-5.7-44.5-5.7c-21,0-37.7,3.8-44.7,5.7c-2.2,0.6-3.8,2.5-4.1,4.7C1.2,52,0.8,56.3,0.5,59.4
		c-0.2,1.7,1.5,3,3.1,2.5l3.9-1.3c0.2-0.1,17.5-5.8,42.9-5.8c25.2,0,42.5,5.7,42.7,5.8c0,0,2,0.6,3.9,1.2
		C98.5,62.4,100.1,61.1,100,59.4z"/>
	<path fill="#A5C6EF" d="M1.4,50.7c-0.1,1.1-0.3,2.3-0.4,3.5l0.7-0.2c0.2-0.1,20.6-6.8,48.6-6.8s48.4,6.8,48.6,6.8l0.5,0.2
		c-0.1-1.2-0.2-2.3-0.4-3.5v0c-4.2-1.3-23.4-6.7-48.8-6.7C24.6,43.9,5.2,49.5,1.4,50.7z"/>
	<path fill="#FC7E7E" d="M1.1,53.7C1,54.8,0.8,56,0.7,57.1l1-0.3C1.9,56.7,22.3,50,50.3,50c28.1,0,48.4,6.8,48.6,6.8l0.8,0.3
		c-0.1-1.1-0.2-2.3-0.3-3.5c-3.4-1.1-23-6.8-49.1-6.8C23.8,46.8,3.9,52.7,1.1,53.7z"/>
</g>
<g id="eyes">
</g>
<g id="blink">
</g>
</svg>
