<?xml version="1.0" encoding="utf-8"?>
<!-- Generator: Adobe Illustrator 19.2.1, SVG Export Plug-In . SVG Version: 6.00 Build 0)  -->
<svg version="1.1" xmlns="http://www.w3.org/2000/svg" xmlns:xlink="http://www.w3.org/1999/xlink" x="0px" y="0px"
	 viewBox="0 0 100 100" enable-background="new 0 0 100 100" xml:space="preserve">
<g id="Layer_1">
	<path fill="#FFEAAE" d="M9.9,76.3C30.8,76.3,49.3,58,49.3,58h0.3c0,0,19.1,18.5,39,18.5L86,90.7l-1.8,0.4
		c-11,1.4-22.7,2.1-34.5,2.1c-11.7,0-23.4-0.7-34.4-2.1l-1.9-0.3L9.9,76.3z"/>
	<path fill="#FFFFFF" d="M52.5,74.3L52.5,74.3c-1.7,1.7-4.5,1.7-6.3,0l0,0c-1.7-1.7-1.7-4.5,0-6.3l0,0c1.7-1.7,4.5-1.7,6.3,0l0,0
		C54.2,69.8,54.2,72.6,52.5,74.3z"/>
</g>
<g id="eyes">
</g>
<g id="blink">
</g>
</svg>
