<svg version="1.1" id="Layer_1" xmlns="http://www.w3.org/2000/svg" xmlns:xlink="http://www.w3.org/1999/xlink" x="0px" y="0px"
	 viewBox="0 0 100 100" style="enable-background:new 0 0 100 100;" xml:space="preserve">
<style type="text/css">
	.st52{fill:#EFEFEF;}
	.st54{fill:#987FEF;}
	.st55{fill:#836EEA;}
</style>
<path class="st54" d="M85,82.5c0-29.8-15.7-54-35-54s-35,24.2-35,54"/>
<path class="st52" d="M52.2,8.3L52.2,8.3c1.5-2.2,5-1.1,4.9,1.6v0c-0.1,1.9,1.8,3.3,3.6,2.6l0,0c2.5-0.9,4.7,2.1,3.1,4.2l0,0
	c-1.2,1.5-0.4,3.7,1.4,4.3l0,0c2.6,0.8,2.6,4.4,0,5.2l0,0c-1.8,0.5-2.5,2.7-1.4,4.3l0,0c1.6,2.1-0.5,5.1-3.1,4.2l0,0
	c-1.8-0.6-3.7,0.7-3.6,2.6v0c0.1,2.7-3.4,3.8-4.9,1.6l0,0c-1.1-1.6-3.4-1.6-4.5,0l0,0c-1.5,2.2-5,1.1-4.9-1.6v0
	c0.1-1.9-1.8-3.3-3.6-2.6l0,0c-2.5,0.9-4.7-2.1-3.1-4.2l0,0c1.2-1.5,0.4-3.7-1.4-4.3l0,0c-2.6-0.8-2.6-4.4,0-5.2l0,0
	c1.8-0.5,2.5-2.7,1.4-4.3l0,0c-1.6-2.1,0.5-5.1,3.1-4.2l0,0c1.8,0.6,3.7-0.7,3.6-2.6v0c-0.1-2.7,3.4-3.8,4.9-1.6l0,0
	C48.8,9.9,51.2,9.9,52.2,8.3z"/>
<path class="st55" d="M84.4,95.6H16.5c-3.2,0-5.8-2.6-5.8-5.8V72.8c0-3.2,2.6-5.8,5.8-5.8h67.9c3.2,0,5.8,2.6,5.8,5.8v16.9
	C90.2,92.9,87.6,95.6,84.4,95.6z"/>
<path class="st54" d="M47,30.2c-1,0-1,3,0,3C49,33.2,49,30.2,47,30.2z"/>
<path class="st54" d="M39,14.9c-1,0-1,2.7,0,2.7C41,17.5,41,14.9,39,14.9z"/>
<path class="st54" d="M42,23.1c-2,0-2,2.7,0,2.7S44,23.1,42,23.1z"/>
<path class="st54" d="M51,13.8c-2,0-2,2.7,0,2.7S53,13.8,51,13.8z"/>
<path class="st54" d="M60,20.9c-2,0-2,2.7,0,2.7C61,23.5,61,20.9,60,20.9z"/>
<path class="st54" d="M61,29c-1.9,0-1.9,3,0,3C62.9,32,62.9,29,61,29z"/>
<path class="st55" d="M48,16.7c-1,0-1,2.7,0,2.7C50,19.3,50,16.7,48,16.7z"/>
<path class="st55" d="M46,9.4c-1,0-1,2.7,0,2.7S47,9.4,46,9.4z"/>
<path class="st55" d="M37,29.8c-2,0-2,3,0,3S39,29.8,37,29.8z"/>
<path class="st55" d="M47,23.1c-1,0-1,2.7,0,2.7C49,25.7,49,23.1,47,23.1z"/>
<path class="st55" d="M55,33.8c-1,0-1,3,0,3C57,36.8,57,33.8,55,33.8z"/>
<path class="st55" d="M56,22.4c-2,0-2,2.7,0,2.7S58,22.4,56,22.4z"/>
<path class="st55" d="M61,14.2c-1,0-1,2.7,0,2.7S62,14.2,61,14.2z"/>
</svg>
