<svg xmlns="http://www.w3.org/2000/svg" width="100" height="100" viewBox="0 0 100 100">
    <path d="M97.15,71.93c-.09,8.34-1.85,16.68-4.66,19.49-4.37,4.35-20.88-.91-29.78-5.8a22.33,22.33,0,0,1-4.81-3.31c-5.13-5.15-5.61-15.14,0-20.76a25.41,25.41,0,0,1,4.77-3.49C71.43,52.87,87,47.59,92.58,53.19,95.88,56.51,97.24,64.22,97.15,71.93Z" fill="#F96E6E"/>
    <path d="M42.06,82.12a25.41,25.41,0,0,1-4.76,3.49C28.59,90.8,13,96.07,7.43,90.48c-3.3-3.32-4.66-11-4.59-18.75.09-8.34,1.85-16.67,4.67-19.48,4.37-4.35,20.88.91,29.78,5.8a22.33,22.33,0,0,1,4.81,3.31C47.22,66.52,47.7,76.5,42.06,82.12Z" fill="#F96E6E"/>
    <path d="M71.72,65.63,50,70.52l-21.69-5a6.57,6.57,0,0,0-2.9,0,6.47,6.47,0,0,0,2.87,12.61L50,73.14l21.69,5a6.52,6.52,0,0,0,2.84,0,6.41,6.41,0,0,0-2.82-12.5Z" fill="#F26161"/>
    <rect x="39.14" y="60.97" width="21.72" height="21.72" rx="8.14" ry="8.14" transform="translate(0.15 -0.11) rotate(0.12)" fill="#F26161"/>
</svg>
