<?xml version="1.0"?><svg width="640" height="480" xmlns="http://www.w3.org/2000/svg">
 <title>Large Yellow Star</title>
 <metadata id="metadata7">image/svg+xmlicon_star2008-05-12Jean-Victor Balinfr-FRiconstarfavouritejean.victor.balin@gmail.com</metadata>
 <g>
  <title>Layer 1</title>
  <g id="layer1">
   <rect id="rect3465" width="104.791737" height="0" x="347.719921" y="200.903838" fill="#ffff00"/>
   <path d="m330.346222,16.978022c-7.189636,-0.152891 -13.818054,3.536594 -16.96521,9.443153l-69.189926,128.336622l-154.278709,20.708191c-6.928314,0.892441 -12.700996,5.301208 -14.891945,11.369415c-2.191147,6.069809 -0.420746,12.747421 4.566956,17.229843l112.314743,99.644226l-26.693222,140.812469c-1.233398,6.391479 1.676971,12.860992 7.474136,16.61554c5.799271,3.753113 13.445953,4.120392 19.641785,0.940704l138.519135,-66.265839l138.019012,65.962799c6.166504,2.932709 13.61615,2.438354 19.252197,-1.277618c5.637512,-3.714294 8.500092,-10.013367 7.397095,-16.282501l-26.585144,-140.263062l112.142517,-100.28688c5.296387,-4.464325 7.24762,-11.343704 4.992737,-17.595047c-2.256714,-6.251511 -8.302185,-10.723404 -15.465881,-11.438583l-154.681915,-19.915359l-69.07901,-128.185913c-3.038452,-5.806419 -9.442963,-9.516479 -16.489349,-9.55216l0,0z" id="path2426" fill="#ffff00"/>
   <path d="m329.850861,45.992355l-67.939728,126.950745c-0.621826,1.213516 -1.704132,2.180573 -3.046204,2.72258c-0.364471,0.166489 -0.747925,0.299149 -1.141174,0.393982l-151.996811,19.917007l110.308823,97.955093c1.474686,1.352631 2.084,3.301331 1.618286,5.161163l-25.872665,138.384369l136.234818,-65.47644c1.726471,-0.793213 3.762604,-0.789612 5.485138,0.008942l135.902435,65.265381l-26.207458,-138.723907c-0.343445,-1.766785 0.267609,-3.576172 1.64151,-4.859161l110.291138,-98.455124l-151.965912,-19.663254c-1.970215,-0.231567 -3.689453,-1.328018 -4.610931,-2.933792l-68.701263,-126.647583z" id="path2428" fill="#ffff00"/>
  </g>
 </g>
</svg>