<?xml version="1.0" encoding="utf-8"?>
<!-- Generator: Adobe Illustrator 19.2.1, SVG Export Plug-In . SVG Version: 6.00 Build 0)  -->
<svg version="1.1" xmlns="http://www.w3.org/2000/svg" xmlns:xlink="http://www.w3.org/1999/xlink" x="0px" y="0px"
	 viewBox="0 0 100 100" enable-background="new 0 0 100 100" xml:space="preserve">
<g id="Layer_1">
	<g>
		<circle opacity="0.2" fill="#FFEAAE" cx="45" cy="39.3" r="38.4"/>
		<polygon fill="#75C69F" points="49.5,54.4 48.6,52.8 54.4,49.7 57.9,56.5 		"/>
		<polygon fill="#987FEF" points="70.3,93.8 67.5,88.5 76,90.6 78.8,95.9 		"/>
		<line fill="#5994C9" x1="73.5" y1="85.9" x2="76" y2="90.6"/>
		<polygon fill="#75C69F" points="65,83.8 62.4,78.9 70.9,81 73.5,85.9 		"/>
		<line fill="#5994C9" x1="68.4" y1="76.4" x2="70.9" y2="81"/>
		<polygon fill="#F9914B" points="65.6,71.1 68.4,76.4 60,74.3 57.2,69 		"/>
		<line fill="#5994C9" x1="63.2" y1="66.4" x2="65.6" y2="71.1"/>
		<polygon fill="#987FEF" points="51.9,59 54.7,64.3 63.2,66.4 60.4,61.2 		"/>
		<line fill="#5994C9" x1="57.9" y1="56.5" x2="60.4" y2="61.2"/>
		<polygon fill="#5994C9" points="51.9,59 60.4,61.1 57.9,56.5 49.5,54.4 		"/>
		<path fill="#FFEAAE" d="M46.9,26.2l11.8-4.3c2-0.7,3.9,1.2,3.3,3.2l-3.8,12l7.7,9.9c1.3,1.7,0.1,4.1-2,4.1l-12.6,0.1l-7.1,10.4
			c-1.2,1.8-3.9,1.4-4.5-0.6l-4-11.9l-12.1-3.5c-2-0.6-2.5-3.3-0.8-4.5L33,33.6L32.6,21c-0.1-2.1,2.3-3.4,4-2.2L46.9,26.2z"/>
		<polygon fill="#F79AC0" points="63.2,66.4 54.7,64.3 57.2,69 65.6,71.1 		"/>
		<polygon fill="#FFEAAE" points="68.4,76.4 60,74.3 62.4,78.9 70.9,81 70.9,81 		"/>
		<polygon fill="#5994C9" points="73.5,85.9 65,83.8 67.5,88.5 75.9,90.6 		"/>
		<path fill="#F79AC0" d="M79.8,97.8l-1-2l-8.5-2.1l2.1,4.1c0,0,1.1,1.3,4,1.3C78.9,99.1,79.8,97.8,79.8,97.8z"/>
		<path fill="#FFEAAE" d="M46.9,26.2l11.8-4.3c2-0.7,3.9,1.2,3.3,3.2l-3.8,12l7.7,9.9c1.3,1.7,0.1,4.1-2,4.1l-12.6,0.1l-7.1,10.4
			c-1.2,1.8-3.9,1.4-4.5-0.6l-4-11.9l-12.1-3.5c-2-0.6-2.5-3.3-0.8-4.5L33,33.6L32.6,21c-0.1-2.1,2.3-3.4,4-2.2L46.9,26.2z"/>
		<path fill="#FFFFFF" d="M40.9,43.8l-5.4-1.6c-0.9-0.3-1.2-1.5-0.4-2.1l4.5-3.3l-0.2-5.6c0-1,1.1-1.6,1.9-1l4.6,3.3l5.3-1.9
			c0.9-0.3,1.8,0.5,1.5,1.5L51,38.4l3.4,4.4c0.6,0.8,0.1,1.9-0.9,1.9l-5.6,0l-3.2,4.6c-0.5,0.8-1.8,0.6-2.1-0.3L40.9,43.8z"/>
	</g>
</g>
<g id="eyes">
</g>
<g id="blink">
</g>
</svg>
