<svg version="1.1" id="Layer_1" xmlns="http://www.w3.org/2000/svg" xmlns:xlink="http://www.w3.org/1999/xlink" x="0px" y="0px"
	 viewBox="0 0 100 100" style="enable-background:new 0 0 100 100;" xml:space="preserve">
<style type="text/css">
	.st71{fill:#F7D9A4;}
	.st80{fill:#f28fca;}
	.st81{fill:#F26DAA;}
	.st23{fill:#FFFFFF;}
	.st82{fill:#F77272;}
	.st83{fill:#6AB0E5;}
	.st84{fill:#FFE35A;}
	.st85{fill:#BDED9D;}
</style>
<g>
	<g>
		<path class="st71" d="M87,67.5C87,56,70.7,47,50.5,47S14,56,14,67.5v5.6c0,11.5,16.3,20.5,36.5,20.5s36.3-9,36.3-20.5L87,67.5z"/>
	</g>
	<path class="st80" d="M51.1,82.3c-21.2,0-31.4-6.4-35.5-10.1c-1.3-1.2-2.1-2.9-2.1-4.7c0-11.8,16.3-21,37-21
		c20.7,0,36.9,9.2,36.9,21l0,0.2c0,2.3-1,4.4-2.7,5.9C80.8,76.9,71.2,82.3,51.1,82.3z"/>
	<g>
		<path class="st81" d="M50.9,64.2c-3.6,0-5.9-1-6.7-1.4c-0.7-0.4-1-1.3-0.7-2c0.4-0.7,1.3-1,2-0.7c0.5,0.2,2.4,1.1,5.4,1.1
			s4.9-0.8,5.4-1.1c0.7-0.4,1.6-0.1,2,0.7s0.1,1.6-0.7,2C56.9,63.3,54.5,64.2,50.9,64.2z"/>
	</g>
	<path class="st23" d="M36.2,74.4c-0.3,0-0.5-0.1-0.7-0.3c-0.4-0.4-0.4-1,0-1.4l3.3-3.2c0.4-0.4,1-0.4,1.4,0c0.4,0.4,0.4,1,0,1.4
		l-3.3,3.2C36.8,74.3,36.5,74.4,36.2,74.4z"/>
	<g>
		<path class="st23" d="M23.3,68.7c-0.3,0-0.6-0.1-0.8-0.4l-2.8-3.7c-0.3-0.4-0.3-1.1,0.2-1.4c0.4-0.3,1.1-0.3,1.4,0.2l2.8,3.7
			c0.3,0.4,0.3,1.1-0.2,1.4C23.8,68.6,23.5,68.7,23.3,68.7z"/>
		<path class="st23" d="M25.1,57.5c-0.1,0-0.2,0-0.3,0l-4.4-1.4c-0.5-0.2-0.8-0.7-0.7-1.2c0.2-0.5,0.7-0.8,1.2-0.7l4.4,1.4
			c0.5,0.2,0.8,0.7,0.7,1.2C26,57.2,25.6,57.5,25.1,57.5z"/>
		<path class="st23" d="M34.6,61.1c-0.1,0-0.1,0-0.2,0c-0.5-0.1-0.9-0.6-0.8-1.1l0.7-4.6c0.1-0.5,0.6-0.9,1.1-0.8
			c0.5,0.1,0.9,0.6,0.8,1.1l-0.7,4.6C35.5,60.8,35,61.1,34.6,61.1z"/>
	</g>
	<g>
		<path class="st23" d="M44.6,51.7c-0.2,0-0.4-0.1-0.6-0.2c-0.4-0.3-0.5-0.9-0.2-1.4l2.7-3.8c0.3-0.4,0.9-0.5,1.4-0.2
			c0.4,0.3,0.5,0.9,0.2,1.4l-2.7,3.8C45.2,51.6,44.9,51.7,44.6,51.7z"/>
		<path class="st82" d="M62.5,54.2c-0.1,0-0.2,0-0.3,0c-0.5-0.2-0.8-0.7-0.7-1.2l1.4-4.4c0.2-0.5,0.7-0.8,1.2-0.7
			c0.5,0.2,0.8,0.7,0.7,1.2l-1.4,4.4C63.3,53.9,62.9,54.2,62.5,54.2z"/>
		<path class="st82" d="M50.6,72.7c-0.2,0-0.4-0.1-0.6-0.2c-0.5-0.3-0.6-0.9-0.3-1.4l2.6-3.8c0.3-0.5,0.9-0.6,1.4-0.3
			c0.5,0.3,0.6,0.9,0.3,1.4l-2.6,3.8C51.2,72.6,50.9,72.7,50.6,72.7z"/>
	</g>
	<g>
		<path class="st23" d="M76.8,61.7c-0.2,0-0.3,0-0.5-0.1l-4.1-2.2c-0.5-0.3-0.7-0.9-0.4-1.4c0.3-0.5,0.9-0.7,1.4-0.4l4.1,2.2
			c0.5,0.3,0.7,0.9,0.4,1.4C77.5,61.5,77.1,61.7,76.8,61.7z"/>
		<path class="st23" d="M61.7,60.7c-0.4,0-0.7-0.2-0.9-0.5c-0.3-0.5-0.1-1.1,0.4-1.4l4-2.3c0.5-0.3,1.1-0.1,1.4,0.4
			c0.3,0.5,0.1,1.1-0.4,1.4l-4,2.3C62,60.7,61.9,60.7,61.7,60.7z"/>
		<path class="st23" d="M66.3,75.3C66.2,75.3,66.2,75.3,66.3,75.3c-0.6-0.1-1-0.5-1-1.1l0.4-4.6c0.1-0.5,0.5-0.9,1.1-0.9
			c0.5,0.1,1,0.5,0.9,1.1l-0.4,4.6C67.2,74.9,66.8,75.3,66.3,75.3z"/>
	</g>
	<g>
		<path class="st83" d="M30.3,56.7c-0.3,0-0.6-0.1-0.8-0.4l-2.8-3.7c-0.3-0.4-0.3-1.1,0.2-1.4c0.4-0.3,1.1-0.3,1.4,0.2l2.8,3.7
			c0.3,0.4,0.3,1.1-0.2,1.4C30.8,56.6,30.5,56.7,30.3,56.7z"/>
	</g>
	<g>
		<path class="st83" d="M68.3,55.4c-0.3,0-0.6-0.1-0.8-0.4c-0.3-0.4-0.3-1.1,0.2-1.4l3.7-2.8c0.4-0.3,1.1-0.3,1.4,0.2
			c0.3,0.4,0.3,1.1-0.2,1.4L69,55.2C68.8,55.3,68.6,55.4,68.3,55.4z"/>
	</g>
	<g>
		<path class="st83" d="M51.4,57.9c-0.3,0-0.7-0.2-0.9-0.5l-2.4-4c-0.3-0.5-0.1-1.1,0.3-1.4c0.5-0.3,1.1-0.1,1.4,0.3l2.4,4
			c0.3,0.5,0.1,1.1-0.3,1.4C51.7,57.9,51.6,57.9,51.4,57.9z"/>
	</g>
	<g>
		<path class="st82" d="M81.7,65c-0.5,0-1-0.2-1-0.7c0-0.6,0.4-0.9,1-0.9l4.6,0c0.6,0,1,0.5,1,1c0,0.6-0.4,0.8-1,0.8L81.7,65
			C81.7,65,81.7,65,81.7,65z"/>
	</g>
	<g>
		<path class="st83" d="M28.9,72C28.9,72,28.9,72,28.9,72c-0.6,0-1-0.4-1-0.9l0-4.4c0-0.6,0.5-0.7,1-0.7c0,0,0,0,0,0
			c0.6,0,1,0.2,1,0.8l0,4.4C29.9,71.8,29.5,72,28.9,72z"/>
	</g>
	<g>
		<path class="st83" d="M61.3,71.2c-0.4,0-0.7-0.2-0.9-0.6l-2.1-4.2c-0.2-0.5,0-1.1,0.5-1.3c0.5-0.2,1.1,0,1.3,0.5l2.1,4.2
			c0.2,0.5,0,1.1-0.5,1.3C61.6,71.2,61.4,71.2,61.3,71.2z"/>
	</g>
	<g>
		<path class="st82" d="M25.9,64c-0.3,0-0.7-0.2-0.9-0.5c-0.3-0.5-0.1-1.1,0.3-1.4l4-2.4c0.5-0.3,1.1-0.1,1.4,0.3
			c0.3,0.5,0.1,1.1-0.3,1.4l-4,2.4C26.3,64,26.1,64,25.9,64z"/>
	</g>
	<g>
		<path class="st82" d="M68.2,65.4c-0.1,0-0.2,0-0.2,0l-4.5-1.1c-0.5-0.1-0.9-0.7-0.7-1.2c0.1-0.5,0.7-0.9,1.2-0.7l4.5,1.1
			c0.5,0.1,0.9,0.7,0.7,1.2C69,65.1,68.6,65.4,68.2,65.4z"/>
	</g>
	<g>
		<path class="st84" d="M46.1,68.5c-0.1,0-0.2,0-0.3,0l-4.4-1.4c-0.5-0.2-0.8-0.7-0.7-1.2c0.2-0.5,0.7-0.8,1.2-0.7l4.4,1.4
			c0.5,0.2,0.8,0.7,0.7,1.2C47,68.2,46.6,68.5,46.1,68.5z"/>
	</g>
	<g>
		<path class="st84" d="M44.5,56.3c-0.1,0-0.1,0-0.2,0l-4.6-0.7c-0.5-0.1-0.9-0.6-0.8-1.1c0.1-0.5,0.6-0.9,1.1-0.8l4.6,0.7
			c0.5,0.1,0.9,0.6,0.8,1.1C45.4,56,45,56.3,44.5,56.3z"/>
	</g>
	<g>
		<path class="st84" d="M80.2,71.8c-0.2,0-0.4-0.1-0.6-0.2L75.8,69c-0.5-0.3-0.6-0.9-0.3-1.4c0.3-0.5,0.9-0.6,1.4-0.3l3.8,2.6
			c0.5,0.3,0.6,0.9,0.3,1.4C80.8,71.6,80.5,71.8,80.2,71.8z"/>
	</g>
	<g>
		<path class="st84" d="M53.1,50.3c-0.4,0-0.8-0.2-0.9-0.6c-0.2-0.5,0-1.1,0.6-1.3l4.3-1.7c0.5-0.2,1.1,0,1.3,0.6s0,1.1-0.6,1.3
			l-4.3,1.7C53.4,50.3,53.3,50.3,53.1,50.3z"/>
	</g>
	<g>
		<path class="st84" d="M54.7,77.2c-0.4,0-0.7-0.2-0.9-0.6c-0.2-0.5,0-1.1,0.5-1.3l4.2-2.1c0.5-0.2,1.1,0,1.3,0.5
			c0.2,0.5,0,1.1-0.5,1.3l-4.2,2.1C55,77.2,54.8,77.2,54.7,77.2z"/>
	</g>
	<g>
		<path class="st85" d="M80.9,59.9c-0.4,0-0.7-0.2-0.9-0.6l-2-4.2c-0.2-0.5,0-1.1,0.5-1.3c0.5-0.2,1.1,0,1.3,0.5l2,4.2
			c0.2,0.5,0,1.1-0.5,1.3C81.2,59.9,81.1,59.9,80.9,59.9z"/>
	</g>
	<g>
		<path class="st85" d="M34.6,67.7c-0.2,0-0.4-0.1-0.6-0.2c-0.4-0.3-0.5-0.9-0.2-1.4l2.7-3.8c0.3-0.4,0.9-0.5,1.4-0.2
			c0.4,0.3,0.5,0.9,0.2,1.4l-2.7,3.8C35.2,67.6,34.9,67.7,34.6,67.7z"/>
	</g>
	<g>
		<path class="st82" d="M38.1,51.5c-0.1,0-0.2,0-0.3,0l-4.4-1.4c-0.5-0.2-0.8-0.7-0.7-1.2c0.2-0.5,0.7-0.8,1.2-0.7l4.4,1.4
			c0.5,0.2,0.8,0.7,0.7,1.2C39,51.2,38.6,51.5,38.1,51.5z"/>
	</g>
	<g>
		<path class="st85" d="M59,56.2c-0.1,0-0.2,0-0.3,0l-4.5-1.3c-0.5-0.2-0.8-0.7-0.7-1.2c0.2-0.5,0.7-0.8,1.2-0.7l4.5,1.3
			c0.5,0.2,0.8,0.7,0.7,1.2C59.8,55.9,59.4,56.2,59,56.2z"/>
	</g>
	<g>
		<path class="st85" d="M71.4,68.7c-0.1,0-0.3,0-0.4-0.1c-0.5-0.2-0.7-0.8-0.5-1.3l1.9-4.2c0.2-0.5,0.8-0.7,1.3-0.5
			c0.5,0.2,0.7,0.8,0.5,1.3l-1.9,4.2C72.1,68.4,71.7,68.7,71.4,68.7z"/>
	</g>
	<g>
		<path class="st85" d="M15.6,63.7c-0.2,0-0.4-0.1-0.6-0.2c-0.5-0.3-0.6-0.9-0.3-1.4l2.6-3.8c0.3-0.5,0.9-0.6,1.4-0.3
			c0.5,0.3,0.6,0.9,0.3,1.4l-2.6,3.8C16.2,63.6,15.9,63.7,15.6,63.7z"/>
	</g>
	<g>
		<path class="st85" d="M46.9,76.9c-0.4,0-0.7-0.2-0.9-0.6l-1.9-4.2c-0.2-0.5,0-1.1,0.5-1.3c0.5-0.2,1.1,0,1.3,0.5l1.9,4.2
			c0.2,0.5,0,1.1-0.5,1.3C47.1,76.9,47,76.9,46.9,76.9z"/>
	</g>
</g>
</svg>
