<svg version="1.1" id="Layer_1" xmlns="http://www.w3.org/2000/svg" xmlns:xlink="http://www.w3.org/1999/xlink" x="0px" y="0px"
	 viewBox="0 0 100 100" style="enable-background:new 0 0 100 100;" xml:space="preserve">
<style type="text/css">
	.st0{fill:#FC5959;}
	.st32{fill:#987FEF;}
	.st34{fill:none;stroke:#353535;stroke-width:2;stroke-linecap:round;stroke-miterlimit:10;}
</style>
<path class="st0" d="M8.6,82.4c11.2-0.1,22.5-0.3,33.7-0.4c3.8,0,3.8,5.9,0,5.9C31.1,88,19.8,88.1,8.6,88.3
	C4.8,88.3,4.8,82.4,8.6,82.4z"/>
<path class="st0" d="M75.9,66.4c1.9-1.7,4.1-2.9,6.7-3.1c2.6-0.2,5.2,1,6.6,3.1c2.3,3.5,1.1,9.7-3.7,10.4c-2.1,0.3-4.5-0.5-5-2.9
	c-0.1-0.3-0.1-0.7-0.1-1c-1.5,0.6-3.3,0.5-4.5-0.8C74.5,70.6,74.2,67.9,75.9,66.4z"/>
<path class="st32" d="M92.3,84.3c0,0-6.2-19.3-22-19.3s-28.6,10.5-28.6,19S54.5,96,70.3,96S92.3,84.3,92.3,84.3z"/>
<path class="st0" d="M62.8,66.5c1.5-2.2,4-3.3,6.6-3.1c2.6,0.2,4.8,1.4,6.7,3.1l0,0c1.6,1.5,0.5,4.1-1.6,4.1l-0.4,0
	c-3.4,0-5.5,2.1-6.3,4.6c-0.4,1.4-2.2,2-3.4,1.1C62.3,74.4,60.2,70.4,62.8,66.5z"/>
<g>
	<line class="st34" x1="82.7" y1="75.3" x2="78.7" y2="81.1"/>
	<line class="st34" x1="83.6" y1="80.2" x2="77.9" y2="76.2"/>
</g>
<path class="st0" d="M91.6,80.8c3,0,3,5,0,5C87.6,85.8,87.6,80.8,91.6,80.8z"/>
</svg>
