<?xml version="1.0" encoding="utf-8"?>
<!-- Generator: Adobe Illustrator 21.0.0, SVG Export Plug-In . SVG Version: 6.00 Build 0)  -->
<svg version="1.1" xmlns="http://www.w3.org/2000/svg" xmlns:xlink="http://www.w3.org/1999/xlink" x="0px" y="0px"
	 viewBox="0 0 100 100" enable-background="new 0 0 100 100" xml:space="preserve">
	<path fill="#5994C9" d="M98.221344,66.6431427v21.541748v0.0055237H1.7786567v-0.0055237v-21.541748
		c0-1.5844345,1.2844377-2.8688736,2.8688715-2.8688736h7.4579339c0.701642,0,1.2674866,0.5715103,1.2674866,1.2674866v0.0679703
		h73.2523041c0.0187759,0,0.033989-0.015213,0.033989-0.0339813V65.075737c0-0.7158051,0.5856628-1.3014679,1.3014679-1.3014679
		h7.3974304C96.9368668,63.7742691,98.221344,65.0587463,98.221344,66.6431427z"/>
	<path fill="#4A88BA" d="M90.0479507,83.2224197h-0.9877396H10.9397888H6.8867321H1.7786567v7.225853c0,0,0,0,0,0.0055237
		c0,0.7017822,0.2829223,1.3467789,0.7469537,1.8051529c0.4640315,0.4640274,1.1033697,0.7524796,1.8106756,0.7524796h91.3274231
		c1.4146118,0,2.5576324-1.1485443,2.5576324-2.5576324c0-0.0055237,0-0.0055237,0-0.0055237v-7.225853H90.0479507z"/>
	<path fill="#F2F2F2" d="M84.6545715,87.8929901H15.3436298c-1.088377,0-1.9706812-0.8823013-1.9706812-1.9706802V81.645462
		h73.2523041v4.2768478C86.6252518,87.0106888,85.7429504,87.8929901,84.6545715,87.8929901z"/>
	<path fill="#FFFFFF" d="M86.625206,77.5407562v-12.498848c0-0.6991959-0.5667572-1.2659836-1.2658844-1.2659836H14.6388741
		c-0.6991272,0-1.2658854,0.5667877-1.2658854,1.2659836v12.498848l0,0v5.6816711h1.2658854h7.9327755h2.5317707h7.9327774
		h2.5318985h7.9327774h2.5319023h7.9326439h2.5319023h7.9327774h2.5318985h7.9327774h2.5318985h7.9326477h1.2658844V77.5407562
		L86.625206,77.5407562z"/>
	<path fill="#75C69F" d="M9.1597118,77.6498337H5.9918933c-0.5296993,0-0.959105-0.4294052-0.959105-0.9591064v-9.5383224
		c0-0.5297012,0.4294057-0.9591064,0.959105-0.9591064h3.1678185c0.5296993,0,0.9591055,0.4294052,0.9591055,0.9591064v9.5383224
		C10.1188173,77.2204285,9.6894112,77.6498337,9.1597118,77.6498337z"/>
	<path fill="#A2D8C0" d="M8.0280228,72.4041824H7.1235828c-0.5296993,0-0.959105-0.4294052-0.959105-0.9591064v-3.1609879
		c0-0.5296936,0.4294057-0.9590988,0.959105-0.9590988h0.9044399c0.5296993,0,0.9591045,0.4294052,0.9591045,0.9590988v3.1609879
		C8.9871273,71.9747772,8.5577221,72.4041824,8.0280228,72.4041824z"/>
	<rect x="23.2715626" y="75.1066971" fill="#F2F2F2" width="1.1322073" height="9.7284021"/>
	<rect x="33.7361107" y="75.1066971" fill="#F2F2F2" width="1.1322073" height="9.7284021"/>
	<rect x="44.2006569" y="63.7759895" fill="#F2F2F2" width="1.1322073" height="21.0591087"/>
	<rect x="54.6652031" y="75.1066971" fill="#F2F2F2" width="1.1322073" height="9.7284021"/>
	<rect x="65.1297455" y="75.1066971" fill="#F2F2F2" width="1.1322073" height="9.7284021"/>
	<rect x="75.5948181" y="75.1066971" fill="#F2F2F2" width="1.1322073" height="9.7284021"/>
	<path fill="#494949" d="M25.7361851,75.1068192h-3.7972298c-0.6702156,0-1.2135315-0.5433197-1.2135315-1.2135315V63.7742691
		c0-0.6702118,1.1091614-2.6181908,1.7793751-2.6181908h2.6655407c0.6702156,0,1.779377,1.947979,1.779377,2.6181908v10.1190186
		C26.9497166,74.5634995,26.4063988,75.1068192,25.7361851,75.1068192z"/>
	<path fill="#494949" d="M36.2008286,75.1068192h-3.7972298c-0.6702156,0-1.2135315-0.5433197-1.2135315-1.2135315V63.7742691
		c0-0.6702118,1.1091614-2.6181908,1.779377-2.6181908h2.6655388c0.6702156,0,1.779377,1.947979,1.779377,2.6181908v10.1190186
		C37.41436,74.5634995,36.8710442,75.1068192,36.2008286,75.1068192z"/>
	<path fill="#494949" d="M57.1300468,75.1068192h-3.7972298c-0.6702118,0-1.2135315-0.5433197-1.2135315-1.2135315V63.7742691
		c0-0.6702118,1.1091614-2.6181908,1.779377-2.6181908h2.6655426c0.6702118,0,1.7793732,1.947979,1.7793732,2.6181908v10.1190186
		C58.3435783,74.5634995,57.8002625,75.1068192,57.1300468,75.1068192z"/>
	<path fill="#494949" d="M67.5946732,75.1068192h-3.7972336c-0.6702156,0-1.2135315-0.5433197-1.2135315-1.2135315V63.7742691
		c0-0.6702118,1.1091614-2.6181908,1.7793732-2.6181908h2.6655426c0.6702194,0,1.7793808,1.947979,1.7793808,2.6181908v10.1190186
		C68.8082047,74.5634995,68.2648849,75.1068192,67.5946732,75.1068192z"/>
	<path fill="#494949" d="M78.059288,75.1068192h-3.797226c-0.6702194,0-1.2135315-0.5433197-1.2135315-1.2135315V63.7742691
		c0-0.6702118,1.1091614-2.6181908,1.7793732-2.6181908h2.6655426c0.6702118,0,1.7793732,1.947979,1.7793732,2.6181908v10.1190186
		C79.2728195,74.5634995,78.7295074,75.1068192,78.059288,75.1068192z"/>
	<path fill="#FC5959" d="M92.4233017,71.2793274h-0.0000076c-1.3986511,0-2.5430069-1.1443558-2.5430069-2.5430145v-0.0000076
		c0-1.3986511,1.1443558-2.5430069,2.5430069-2.5430069h0.0000076c1.3986588,0,2.5430145,1.1443558,2.5430145,2.5430069v0.0000076
		C94.9663162,70.1349716,93.8219604,71.2793274,92.4233017,71.2793274z"/>
	<path fill="#FC5959" d="M92.4233017,77.6498337h-0.0000076c-1.3986511,0-2.5430069-1.1443558-2.5430069-2.5430145v-0.0000076
		c0-1.3986511,1.1443558-2.5430069,2.5430069-2.5430069h0.0000076c1.3986588,0,2.5430145,1.1443558,2.5430145,2.5430069v0.0000076
		C94.9663162,76.5054779,93.8219604,77.6498337,92.4233017,77.6498337z"/>
	<path fill="#FC7E7E" d="M92.4233017,70.1476364L92.4233017,70.1476364c-0.7762299,0-1.4113235-0.6350937-1.4113235-1.4113235l0,0
		c0-0.7762299,0.6350937-1.4113235,1.4113235-1.4113235l0,0c0.7762299,0,1.4113235,0.6350937,1.4113235,1.4113235l0,0
		C93.8346252,69.5125427,93.1995316,70.1476364,92.4233017,70.1476364z"/>
	<path fill="#FC7E7E" d="M92.4233017,76.5181427L92.4233017,76.5181427c-0.7762299,0-1.4113235-0.6350937-1.4113235-1.4113235l0,0
		c0-0.7762299,0.6350937-1.4113235,1.4113235-1.4113235l0,0c0.7762299,0,1.4113235,0.6350937,1.4113235,1.4113235l0,0
		C93.8346252,75.883049,93.1995316,76.5181427,92.4233017,76.5181427z"/>
</svg>
