<?xml version="1.0" encoding="utf-8"?>
<!-- Generator: Adobe Illustrator 19.2.1, SVG Export Plug-In . SVG Version: 6.00 Build 0)  -->
<svg version="1.1" xmlns="http://www.w3.org/2000/svg" xmlns:xlink="http://www.w3.org/1999/xlink" x="0px" y="0px"
	 viewBox="0 0 100 100" enable-background="new 0 0 100 100" xml:space="preserve">
<g id="Layer_1">
	<path opacity="0.5" fill="#5994C9" d="M12.5,66.7C16,73.8,21.8,79.6,28.9,83c14.8,7.2,30.6,6.7,43.6-1.4c12.5-7.8,20-21.2,20-35.9
		c0-6.3-1.4-12.7-4.1-18.3c-5.5-2.1-5.7-3.3-12-3.3c-6.6,0-6.6,3.7-13.2,3.7c-6.6,0-6.6-3.7-13.2-3.7c-6.6,0-6.6,3.7-13.2,3.7
		c-6.6,0-6.6-3.7-13.2-3.7c-6.4,0-6.4,1.3-12,3.4C5.9,39.2,6.1,53.5,12.5,66.7z"/>
	<path fill="#F9914B" d="M66,51.9c0.6,0.6,0.6,1.6,0,2.2c-2.2,2.3-7.8,7.6-14.2,7.5c-8.3-0.1-15-8.9-15-8.9s6.9-8.7,15.2-8.6
		C58.4,44.2,63.9,49.5,66,51.9z"/>
	<path fill="#F9914B" d="M32.9,44.3l9.3,7.1c0.9,0.7,0.9,2,0,2.6l-9.5,6.9c-1.1,0.8-2.6,0-2.6-1.4l2.2-7.2l-2-6.8
		C30.3,44.2,31.9,43.5,32.9,44.3z"/>
	<circle fill="#FFFFFF" cx="54.5" cy="52.6" r="4.1"/>
	<circle fill="#555555" cx="54.5" cy="52.6" r="1.8"/>
	<path fill="#FFFFFF" d="M96.2,45.5c0-12.9-5.5-24.9-15.1-33.6l-0.5,0H19.4l-0.5,0C3.1,26.3-0.6,48.3,9.3,68.5
		C12.7,75.5,19,81.1,25,85v3c0,3.1,2.9,6,6.6,6h36.9c3.7,0,6.6-2.9,6.6-6v-3.7l-0.1,0.1C88.2,75.8,96.2,61.4,96.2,45.5z M72.5,81.6
		c-12.9,8.1-28.8,8.6-43.6,1.3c-7.1-3.5-12.9-9.1-16.4-16.2C3.5,48.3,6.8,28,20.8,15h58.3c8.5,8,13.3,19.1,13.3,30.7
		C92.5,60.5,85,73.8,72.5,81.6z"/>
	<circle opacity="0.3" fill="#FFFFFF" cx="62.2" cy="39" r="2.6"/>
	<circle opacity="0.3" fill="#FFFFFF" cx="70.2" cy="35.2" r="3.3"/>
	<circle opacity="0.3" fill="#FFFFFF" cx="68.1" cy="44.5" r="1.7"/>
</g>
<g id="eyes">
</g>
<g id="blink">
</g>
</svg>
