<?xml version="1.0" encoding="utf-8"?>
<!-- Generator: Adobe Illustrator 21.0.0, SVG Export Plug-In . SVG Version: 6.00 Build 0)  -->
<svg version="1.1" xmlns="http://www.w3.org/2000/svg" xmlns:xlink="http://www.w3.org/1999/xlink" x="0px" y="0px"
	 viewBox="0 0 100 100" style="enable-background:new 0 0 100 100;" xml:space="preserve">
<g id="Layer_1">
	<g>
		<g style="opacity:0.4;">
			<path style="fill:#FFFFFF;" d="M16.0910702,21.0888863c0-1.7324829,15.1884956-9.427947,33.9244537-9.427947
				s33.9244537,7.6954641,33.9244537,9.427947c0,1.732481-15.1884995,9.4279461-33.9244537,9.4279461
				S16.0910702,22.8213673,16.0910702,21.0888863z"/>
		</g>
		<g style="opacity:0.4;">
			<path style="fill:#FFFFFF;" d="M83.9399796,21.0887756c0-1.7324829-15.1884232-9.4279356-33.9244537-9.4279356
				s-33.9244537,7.6954527-33.9244537,9.4279356c0,0.2246971,0.2603378,0.5508938,0.7453709,0.9463062l33.1790848,42.1163025
				L83.194603,22.0350819C83.6796417,21.6396694,83.9399796,21.3134727,83.9399796,21.0887756z"/>
		</g>
		<g>
			<path style="fill:#FFFFFF;" d="M50.0158195,95.84552c-1.7531471,0-3.1736374-1.4210129-3.1736374-3.1736374V62.0357361
				c0-1.7526283,1.4204903-3.1736374,3.1736374-3.1736374s3.1736374,1.4210091,3.1736374,3.1736374v30.6361465
				C53.1894569,94.4245071,51.7689667,95.84552,50.0158195,95.84552z"/>
		</g>
		<path style="fill:#FFFFFF;" d="M50.1315231,87.5906525c-1.698391,0-16.5934143,0.1720047-16.5934143,6.1391068
			s14.8950233,6.1396255,16.5934143,6.1396255c1.6983948,0,16.5934143-0.1725235,16.5934143-6.1396255
			S51.8299179,87.5906525,50.1315231,87.5906525z"/>
		<path style="fill:#FFFFFF;" d="M91.3629913,12.8755999c-0.0056839-0.0568199-0.0062027-0.1099586-0.0170441-0.1705236
			c-0.0501099-0.3201923-0.1652985-0.6178493-0.3414383-0.8736029c-0.91996-1.5831385-3.9009323-3.9940367-12.5478516-7.0085149
			C73.2912292,3.0217743,62.7238007,0,49.991024,0C37.2592812,0,26.6918526,3.0217743,21.5253944,4.8229585
			c-8.646924,3.0144782-11.62815,5.4253764-12.5478535,7.0085149c-0.1761417,0.2557535-0.2915888,0.5534105-0.341177,0.8736029
			c-0.0204029,0.1153183-0.0328007,0.2250834-0.0328007,0.3247118c0,0.0956249,0.0126553,0.2013865,0.0315094,0.3116045
			c0.0193701,0.4262123,0.1627111,0.8504868,0.4468098,1.2111626l39.2717018,49.8504982
			c0.4018707,0.5093079,1.0134583,0.8063202,1.6622353,0.8063202s1.2603645-0.2970123,1.6622353-0.8063202l39.271698-49.8504982
			C91.3381958,14.0594511,91.4642334,13.4487686,91.3629913,12.8755999z M49.991024,4.2315173
			c17.920414,0,32.3221397,6.102757,36.3682213,8.7982712c-4.0460815,2.6955128-18.4478073,8.7982702-36.3682213,8.7982702
			s-32.3221359-6.1027575-36.3692474-8.7982702C17.6688862,10.3342743,32.07061,4.2315173,49.991024,4.2315173z
			 M50.0158195,59.6746216L19.0067329,20.312006c0.7848854,0.3019829,1.6139374,0.6091976,2.5186615,0.9246101
			c5.1664581,1.8011856,15.7338867,4.8229599,28.4656296,4.8229599c12.7327766,0,23.3002052-3.0217743,28.4656334-4.8229599
			c0.9315872-0.3247757,1.7849121-0.6410294,2.5894241-0.9515343L50.0158195,59.6746216z"/>
		<g>
			<g>
				<circle style="fill:#75C69F;" cx="50.0155258" cy="41.2259102" r="7.8181386"/>
			</g>
			<g>
				<circle style="fill:#FC7E7E;" cx="52.5332489" cy="39.1101494" r="3.1591423"/>
			</g>
		</g>
	</g>
</g>
<g id="eyes">
</g>
<g id="blink">
</g>
</svg>
