<?xml version="1.0" encoding="utf-8"?>
<!-- Generator: Adobe Illustrator 19.2.1, SVG Export Plug-In . SVG Version: 6.00 Build 0)  -->
<svg version="1.1" xmlns="http://www.w3.org/2000/svg" xmlns:xlink="http://www.w3.org/1999/xlink" x="0px" y="0px"
	 viewBox="0 0 100 100" enable-background="new 0 0 100 100" xml:space="preserve">
<g id="Layer_1">
	<g>
		<path fill="#FCDAC9" d="M61.8,51.6L25,73.5L8.3,7.2C7.9,5.3,10,4.1,11.4,5.3L61.8,51.6z"/>
	</g>
	<g>
		<path fill="#F9C9B4" d="M8.3,7.2l0.1,0.4L8.3,6.2C8.2,6.5,8.2,6.8,8.3,7.2z"/>
		<path fill="#F9C9B4" d="M49.4,51.3l9.1-0.6l0.2,2.8l3-1.8L57,47.2l-7.8,0.5l-0.6-8.2l-4.4-4.1L35.7,36l-0.8-8.9L31,23.7v0
			l-8.9,0.6l-0.5-9.1l0.5,0l-4.2-3.9l0.1,0.7l-8.2,0.6l0.9,3.4l7.6-0.5l0.6,9.1l-6,0.4l0.9,3.4L19,28l0.6,9.1l-3.7,0.3l0.9,3.4
			l3.1-0.2l0.6,9.1L19,49.9l0.9,3.4l0.8-0.1l0.3,4.7L25,73.5l0.6-0.4l-0.5-7.5l9.1-0.6l0.2,2.9l3.4-2l-0.1-1.1l2.3-0.2l10-5.9
			L49.4,51.3z M22.5,27.8l9.1-0.6l0.6,9.1l-9.1,0.6L22.5,27.8z M23.3,40.4l9.1-0.6l0.6,9.1L24,49.5L23.3,40.4z M24.8,62.1L24.2,53
			l9.1-0.6l0.6,9.1L24.8,62.1z M36,39.5l9.1-0.6l0.6,9.1l-9.1,0.6L36,39.5z M37.5,61.3l-0.6-9.1l9.1-0.6l0.6,9.1L37.5,61.3z"/>
	</g>
	<path fill="#FFFFFF" d="M91.5,90.9c0-1.6-1.7-4.5-7.3-4.5l0,0c-1.1-2.9-3.9-5-8.3-6.6c1.2-6,0.3-12.5-3.1-18.1
		c-1.8-3-4.2-5.6-6.9-7.6c0-4-4.8-7.5-8.1-4c-0.1,0.1-0.2,0.2-0.2,0.3c-4.9,6-12,2.8-18,6.5C34.1,60.2,35,68.5,27,67.7
		c-0.4,0-0.7,0-1.1,0c-4.6,0.5-4.9,7.3-0.9,9.4c0.2,2,0.6,4,1.2,5.9c-1.9,1.3-2.9,2.7-2.9,4c0,5,13.6,8,30.3,8
		c5.7,0,11.3-0.5,16.1-1.3c8.1-0.9,9.1,0,14.4,0c0.2,0,0.4,0,0.6,0C88.5,93.6,91.5,92.4,91.5,90.9z"/>
</g>
<g id="eyes">
</g>
<g id="blink">
</g>
</svg>
