<svg id="Layer_1" data-name="Layer 1" xmlns="http://www.w3.org/2000/svg" viewBox="0 0 100 100"><path d="M26.53,50.92C9.71,50.92,2.62,66.57,11.45,90A1.35,1.35,0,0,0,14,90c1.92-5.37,7.92-12.51,15.38-12.51" fill="#fc5959"/><path d="M73.47,50.92c16.82,0,23.91,15.65,15.08,39.12A1.35,1.35,0,0,1,86,90c-1.92-5.37-7.92-12.51-15.38-12.51" fill="#fc5959"/><path d="M67.8,88C89.49,32,53.69,3.71,50,2.46,46.31,3.71,10.51,32,32.2,88h0A56.47,56.47,0,0,0,67.8,88h0Z" fill="#fff"/><path d="M67.54,22.32C60.89,9.64,51.77,3,50,2.46,48.23,3,39.11,9.64,32.46,22.32A58.15,58.15,0,0,0,67.54,22.32Z" fill="#fc5959"/><circle cx="50" cy="40.86" r="9.38" fill="#a5c6ef"/><path d="M46.18,40.86a2,2,0,0,1-1.8-3,6.36,6.36,0,0,1,11.23,0,2,2,0,0,1-1.8,3H46.18Z" fill="#fff" opacity="0.4"/><path d="M28.69,77.5C29.64,80.89,30.8,84.4,32.2,88h0A56.47,56.47,0,0,0,67.8,88h0c1.4-3.62,2.57-7.13,3.51-10.52a76,76,0,0,1-21.47,2.86A72.13,72.13,0,0,1,28.69,77.5Z" fill="#f2f2f2"/><path d="M54.13,61.9L51.27,96.22a1.44,1.44,0,0,1-2.86,0L45.55,61.9a4.31,4.31,0,0,1,8.58-.72A4.64,4.64,0,0,1,54.13,61.9Z" fill="#fc5959"/></svg>