<svg version="1.1" id="Layer_1" xmlns="http://www.w3.org/2000/svg" xmlns:xlink="http://www.w3.org/1999/xlink" x="0px" y="0px"
	 viewBox="0 0 100 100" style="enable-background:new 0 0 100 100;" xml:space="preserve">
<style type="text/css">
	.st0{fill:#EAB049;}
	.st1{fill:#C64A4A;}
	.st2{fill:#FFEBCC;}
	.st3{fill:#FC5959;}
</style>
<path class="st0" d="M69,33.8C39.4,33.7,10.2,48.1,2,74.1c-3.2,10.3,15,14.7,18.2,4.4c6-18.9,27.5-28.2,48.7-28.2
	C81.1,50.4,81.2,33.8,69,33.8z"/>
<g>
	<path class="st0" d="M95.2,96.7L10.7,84.4l1.1-8l85.5,12.7l-0.9,6.8C96.3,96.4,95.8,96.8,95.2,96.7z"/>
</g>
<path class="st1" d="M23.6,78.9l73.1,10.8c0.4,0.1,0.7-0.4,0.6-0.8L76.9,46.8c-1.5-3.2-11.2-2.1-15.1-1.3
	c-23.5,4.4-32.7,11.9-42.1,27.3c0,0,0,0,0,0C17.1,78,20.5,78.4,23.6,78.9z"/>
<path class="st2" d="M97.3,88.9L79.4,52c0,0,0,0-0.1,0c-0.8-1.4-2.3-2.2-4.5-2c-5.7,0.6-11.6,0.9-17.3,2c-5.2,1.1-8.8,4.2-12.5,7.9
	c-6.6,6.7-20.1,9.6-16.6,21.8c1.7,5.9,9.9,4.5,10.8-0.5l12,1.8c0.6,2.1,2.3,3.8,5.1,3.8c2.1,0,3.6-1,4.5-2.4l36,5.3
	C97.1,89.7,97.5,89.3,97.3,88.9z"/>
<path class="st3" d="M77.3,63.6c2.6,0,5-0.7,6.8-1.9L77.5,48c-0.1,0-0.1,0-0.2,0c-5.8,0-10.4,3.5-10.4,7.8S71.5,63.6,77.3,63.6z"/>
<ellipse class="st3" cx="44.8" cy="67.6" rx="10.4" ry="7.8"/>
<path class="st3" d="M74.6,74.8c-5.8,0-10.4,3.5-10.4,7.8c0,0.8,0.2,1.6,0.5,2.3l18,2.7c1.5-1.4,2.4-3.1,2.4-5
	C85,78.3,80.3,74.8,74.6,74.8z"/>
</svg>
