<svg version="1.1" id="Layer_1" xmlns="http://www.w3.org/2000/svg" xmlns:xlink="http://www.w3.org/1999/xlink" x="0px" y="0px"
	 viewBox="0 0 100 100" style="enable-background:new 0 0 100 100;" xml:space="preserve">
<style type="text/css">
	.st1{fill:#75C69F;}
	.st2{fill:#5994C9;}
</style>
<g>
	<path class="st1" d="M95.7,90.8c-7.5,1-13.7-5.6-21.5-3.8c-4.3,1-8,3.7-12.6,4c-4.7,0.3-8.9-1.3-12.7-4.1c-3.1-2.3-5.9-3.9-9.7-4.3
		c-4.5-0.5-9.2-0.1-13.7,0.5c-9.2,1.2-7.6,6.8,1.6,5.8c4.2-0.4,9.3-1.2,13.4-0.1c4.1,1.1,7.2,4.9,11.2,6.5
		c7.8,3.2,14.3,1.1,21.7-1.7c8-3,14.5,4.3,22.6,3.2C99.5,96.4,99.4,90.4,95.7,90.8z"/>
	<path class="st2" d="M95.9,96.8c0.8-0.1,1.4-0.5,1.8-1c-0.3-0.3-0.6-0.6-1.1-0.8c-2.6-1-4.7-2.8-6.6-4.8c-5.1-1.4-9.8-4.5-15.4-3.3
		c0.3,0,0.5,0.1,0.8,0.1c5.3,0.7,8.4,4.7,11.8,8.3C89.9,96.4,92.8,97.3,95.9,96.8z"/>
	<path class="st2" d="M74.6,93.2c-0.1,0-0.3,0-0.4,0c-4.4,0-8.6,1.8-13.1,1c-4.6-0.8-8.3-3.3-11.4-6.8c-0.3-0.2-0.5-0.3-0.8-0.5
		c-3.1-2.3-5.9-3.9-9.7-4.3c-4.5-0.5-9.2-0.1-13.7,0.5c-1.3,0.2-2.7,0.4-4,0.6c2.1,0.1,4.2,0.3,6.3,0.5c4.2,0.5,9.3,1,13.1,3
		c2,1.1,3.6,2.9,5.2,4.7c1.8,1.3,3.5,2.6,5.5,3.4c7.8,3.2,14.3,1.1,21.7-1.7C73.7,93.5,74.1,93.3,74.6,93.2z"/>
</g>
<path class="st2" d="M30.8,98.1C18,100.2,2.9,91,1.7,71.1s15-31.7,25.4-30.5c14.9-6,36.5,8.4,35.9,24.5
	C65.7,82.7,51.9,100.2,30.8,98.1z"/>
<g>
	<defs>
		<path id="SVGID_13_" d="M30.8,98.1C18,100.2,2.9,91,1.7,71.1s15-31.7,25.4-30.5c14.9-6,36.5,8.4,35.9,24.5
			C65.7,82.7,51.9,100.2,30.8,98.1z"/>
	</defs>
	<clipPath id="SVGID_2_">
		<use xlink:href="#SVGID_13_"  style="overflow:visible;"/>
	</clipPath>
	<g style="clip-path:url(#SVGID_2_);">
		<path class="st1" d="M74.7,67c-5.2-5-12.9-5.2-19.7-5.5c-9.3-0.4-18.6,0.4-27.9,1.2c0.1-0.9,0.2-1.9,0.3-2.8c0.2,0,0.5,0,0.7,0
			C41,58.4,54,57,66.6,61.1c3.4,1.1,4.5-4.3,1.1-5.4c-12.8-4.1-26.2-2.9-39.3-1.3c0.3-1.4,0.6-2.8,1-4.2c0,0,0,0,0,0
			c10.9-0.3,24.2-2.7,34.2,2.4c3.2,1.6,5.6-3.3,2.5-4.9c-10.5-5.3-23.6-3.5-35.1-3c0.1-0.2,0.1-0.5,0.2-0.7c0.1-0.3,0.1-0.5,0.1-0.7
			c0.2-0.3,0.3-0.6,0.5-0.9c0.1-0.3,0.2-0.6,0.3-0.9c0.4,0.2,0.9,0.4,1.6,0.3c7.4-0.6,14.9-1,22.4-1.1c3.5,0,3.2-5.5-0.4-5.5
			c-7.3,0.1-14.5,0.5-21.8,1.1c-0.1-2.5-3.9-4-5.2-1.2c-0.9,2-1.7,4.1-2.3,6.2c-0.1,0.2-0.1,0.5-0.1,0.7c-0.2,0.3-0.4,0.6-0.5,0.9
			c-7.4,22.4-6,46.9,4,68.2c1.5,3.2,6.7,1.4,5.2-1.8c-3.4-7.3-5.8-14.9-7.1-22.6c5.5,5.1,11,10.2,16.5,15.3c2.6,2.4,6.2-1.7,3.6-4.1
			c-6.4-6-12.8-11.9-19.2-17.9c-0.6-0.6-1.3-0.8-1.9-0.7c-0.1-1.5-0.2-3.1-0.3-4.6c10.3,11,22.6,19.7,36.4,25.7
			c3.2,1.4,5.7-3.5,2.5-4.9c-14.3-6.2-26.7-15.2-37-26.9c-0.1-0.1-0.2-0.2-0.3-0.3c1.5-0.1,3-0.3,4.6-0.4c9.7,8,17.3,18.6,29.5,23
			c3.3,1.2,5.8-3.7,2.5-4.9c-10-3.6-16.7-11.6-24.3-18.7c2-0.1,4.1-0.2,6.1-0.3c5.7,6.5,12.2,11.9,19.5,16.4c3,1.9,5.5-3.1,2.5-4.9
			c-5.3-3.3-10.3-7.2-14.7-11.6c6.1,0,13,0.4,17.2,4.3C73.6,73.6,77.2,69.5,74.7,67z"/>
		<path class="st1" d="M19.1,36c-9.2,24.1-9.8,50.5-1.5,74.9c1.1,3.4,6.3,1.6,5.2-1.8c-7.8-23-7.4-48,1.2-70.7
			C25.2,35.2,20.3,32.7,19.1,36z"/>
		<path class="st1" d="M11.1,36.4C3,57.5,1.3,80,6.2,102.1c0.8,3.5,6,1.6,5.2-1.8C6.9,79.8,8.5,58.5,16,38.9
			C17.3,35.6,12.4,33.1,11.1,36.4z"/>
	</g>
</g>
</svg>
