<svg id="Layer_1" data-name="Layer 1" xmlns="http://www.w3.org/2000/svg" viewBox="0 0 100 100"><path d="M49.72,48H47.51L29.75,98c0,0.29.7,0.49,1.56,0.49a1.77,1.77,0,0,0,1.56-.53L48.61,53.55,64.23,98h0c0,1,.7.48,1.56,0.48A1.79,1.79,0,0,0,67.35,98Z" fill="#e6e6e6"/><path d="M52,36.54c-8.54,0-16,2.84-20.31,7.11A15.33,15.33,0,0,1,32.78,40a57.22,57.22,0,0,1,2.68-5.16c1-1.8,2.14-3.62,3.31-5.49a55.21,55.21,0,0,0,3.46-6.09,17.54,17.54,0,0,0,1.28-3.86c0.07-.37.14-0.94,0.18-1.26l0-.35V17.15c0-.59,0-1.21,0-1.83a17.61,17.61,0,0,0-.47-3.94,12.88,12.88,0,0,0-1.81-4.17A12,12,0,0,0,38.16,3.9a13.06,13.06,0,0,0-3.69-1.67,15.78,15.78,0,0,0-5.53-.55l-0.67.09A7.7,7.7,0,1,0,32.9,16c0,0.11.08,0.21,0.11,0.33a7,7,0,0,1,.18.92l-0.09.12c0-.08-0.1.2-0.1-0.17v0l0.11,0,0.06,0.09,0,0.35c0,0.08,0,.07,0,0.07v0s0,0,0,.06A6.57,6.57,0,0,1,33,19.62a18.69,18.69,0,0,1-2.22,4.69c-1,1.65-2.28,3.32-3.59,5A67.6,67.6,0,0,0,23.33,35a25.14,25.14,0,0,0-3.14,7.09,16.69,16.69,0,0,0-.49,4.55,14.37,14.37,0,0,0,1,4.74,16.52,16.52,0,0,0,2.2,3.87A20.58,20.58,0,0,0,25.44,58a31.72,31.72,0,0,0,4.65,3.45c1.39,0.85,2.57,1.48,3.55,2s3.08,1.4,3.08,1.4h0a27.92,27.92,0,0,0,12.06,2.43c13.3,0,19.77-15.24,30.46-18.55S65.26,36.54,52,36.54Z" fill="#f28fca"/><path d="M21.31,10.9c-0.79.56-6.24,6.47-.69,10.41l5.57-4.64Z" fill="#fcb47e"/><circle cx="28.88" cy="9.45" r="3.63" fill="#fff"/><circle cx="28.88" cy="9.45" r="1.72" fill="#4d4d4d"/></svg>
