<svg id="Layer_1" data-name="Layer 1" xmlns="http://www.w3.org/2000/svg" viewBox="0 0 100 100"><path d="M65.19,29a74.91,74.91,0,0,0-50.56,0A7.17,7.17,0,0,0,10,36V83a7.22,7.22,0,0,0,4.7,7h0a75.07,75.07,0,0,0,50.62,0h0A7.21,7.21,0,0,0,70,83V36A7.32,7.32,0,0,0,65.19,29Z" fill="#fff"/><path d="M17.39,35.24a75.81,75.81,0,0,0,45,0,1,1,0,0,0,0-2,75.81,75.81,0,0,0-45,0A1,1,0,0,0,17.39,35.24Z" fill="#e6e6e6"/><path d="M21.36,36.34a75.79,75.79,0,0,0,37.07,0A75.79,75.79,0,0,0,21.36,36.34Z" fill="#5e4c3e"/><path d="M73.74,80.07h-7a5.5,5.5,0,0,1,0-11h7a5.43,5.43,0,0,0,5.42-5.42V56.15a5.43,5.43,0,0,0-5.42-5.42h-7a5.5,5.5,0,0,1,0-11h7A16.44,16.44,0,0,1,90.16,56.15v7.49A16.44,16.44,0,0,1,73.74,80.07Z" fill="#fff"/></svg>