<svg xmlns="http://www.w3.org/2000/svg" width="100" height="100" viewBox="0 0 100 100">
<path d="M20.67,38.56a29.33,29.33,0,0,0,58.66,0Z" fill="#bc669b"/>
<ellipse cx="50" cy="38.17" rx="28.11" ry="4.99" fill="#db79ba"/>
<path d="M81.25,38.39c0-13.72-8.13-28.6-8.47-29.23l0-.06,0,0-.1-.13-.09-.12C70.06,5.45,61.27,3.19,50.3,3.12h-.6c-11,.07-19.76,2.33-22.23,5.7l-.1.12-.1.13,0,0,0,.06c-.35.63-8.47,15.51-8.47,29.23A31.29,31.29,0,0,0,47.12,69.5V84c-5.53.25-16.63,1.39-16.63,6.4,0,6.3,17.51,6.48,19.51,6.48s19.51-.18,19.51-6.48c0-5-11.1-6.15-16.63-6.4V69.5A31.29,31.29,0,0,0,81.25,38.39ZM50,7c9.46,0,15.6,1.72,18.18,3.14C65.6,11.5,59.46,13.2,50,13.22S34.41,11.5,31.82,10.09C34.41,8.67,40.54,7,50,7ZM22.59,38.39c0-9.84,4.74-20.75,6.92-25.26C33.33,15.5,40.79,17,49.7,17.06h.6C59.21,17,66.67,15.5,70.5,13.13c2.18,4.5,6.92,15.4,6.92,25.26a27.41,27.41,0,1,1-54.83,0Z" fill="#fff"/>
</svg>
