<svg version="1.1" id="Layer_1" xmlns="http://www.w3.org/2000/svg" xmlns:xlink="http://www.w3.org/1999/xlink" x="0px" y="0px"
	 viewBox="0 0 100 100" style="enable-background:new 0 0 100 100;" xml:space="preserve">
<style type="text/css">
	.st19{fill:#FFFFFF;}
	.st38{fill:#444444;}
</style>
<circle class="st19" cx="50" cy="55" r="42"/>
<g>
	<defs>
		<circle id="SVGID_17_" cx="50" cy="55" r="42"/>
	</defs>
	<clipPath id="SVGID_2_">
		<use xlink:href="#SVGID_17_"  style="overflow:visible;"/>
	</clipPath>
	<g style="clip-path:url(#SVGID_2_);">
		<path class="st38" d="M10.4,41.5l-2.7-11c-0.4-1.5,0.3-3,1.6-3.8l9.6-5.9c1.3-0.8,3-0.7,4.1,0.3l8.6,7.3c1.2,1,1.6,2.6,1,4
			l-4.3,10.4c-0.6,1.4-2,2.3-3.5,2.2l-11.3-0.9C12,44,10.8,43,10.4,41.5z"/>
		<path class="st38" d="M56.2,46.1l-1.4-11.2c-0.2-1.5,0.6-3,2-3.6L67,26.5c1.4-0.6,3-0.3,4,0.8l7.7,8.2c1,1.1,1.2,2.8,0.5,4.1
			l-5.5,9.9c-0.7,1.3-2.2,2-3.7,1.8L59,49.1C57.5,48.8,56.4,47.6,56.2,46.1z"/>
		<path class="st38" d="M77.1,90.6l-6.2-9.4c-0.8-1.3-0.8-2.9,0.2-4.1l7.1-8.8c1-1.2,2.6-1.6,4-1.1l10.6,4c1.4,0.5,2.3,1.9,2.3,3.5
			l-0.5,11.3c-0.1,1.5-1.1,2.8-2.6,3.2l-10.9,3C79.5,92.5,77.9,91.9,77.1,90.6z"/>
		<path class="st38" d="M49.7,77.5l-9.8,5.6c-1.3,0.8-3,0.6-4.1-0.5L27.5,75c-1.1-1-1.5-2.7-0.8-4l4.7-10.3c0.6-1.4,2.1-2.2,3.6-2
			l11.2,1.3c1.5,0.2,2.7,1.3,3,2.8l2.3,11.1C51.8,75.3,51.1,76.8,49.7,77.5z"/>
	</g>
</g>
</svg>
