<svg version="1.1" id="Layer_1" xmlns="http://www.w3.org/2000/svg" xmlns:xlink="http://www.w3.org/1999/xlink" x="0px" y="0px"
	 viewBox="0 0 100 100" style="enable-background:new 0 0 100 100;" xml:space="preserve">
<style type="text/css">
	.st19{fill:#FFFFFF;}
	.st45{fill:none;stroke:#E5E5E5;stroke-width:3;stroke-linecap:round;stroke-miterlimit:10;}
</style>
<g>
	<path class="st19" d="M33.6,88.5c0,2.4-2.2,4.2-4.5,3.7c-7.5-1.9-17.5-7.6-17.5-14.3c0-6.8,10-12.5,17.5-14.3
		c2.3-0.6,4.5,1.3,4.5,3.7V88.5z"/>
	<g>
		<path class="st19" d="M42.2,92c-1,0-1.8-0.8-1.8-1.8V65.5c0-1,0.8-1.8,1.8-1.8c1,0,1.8,0.8,1.8,1.8v24.7C44,91.2,43.2,92,42.2,92z
			"/>
	</g>
	<g>
		<path class="st19" d="M52.8,92c-1,0-1.8-0.8-1.8-1.8V65.5c0-1,0.8-1.8,1.8-1.8c1,0,1.8,0.8,1.8,1.8v24.7
			C54.6,91.2,53.8,92,52.8,92z"/>
	</g>
	<g>
		<rect x="31" y="76" class="st19" width="49" height="4"/>
	</g>
	<path class="st19" d="M82.6,64.6L70.3,77.8l12.2,13.8c1.2,1.4,3.5,0.2,3.2-1.6l-2.4-11.6l2.5-12C86.1,64.5,83.9,63.3,82.6,64.6z"/>
	<g>
		<path class="st19" d="M63.4,88.4c-1,0-1.8-0.8-1.8-1.8V69c0-1,0.8-1.8,1.8-1.8c1,0,1.8,0.8,1.8,1.8v17.6
			C65.2,87.6,64.4,88.4,63.4,88.4z"/>
	</g>
	<line class="st45" x1="26.5" y1="81.1" x2="19.9" y2="74.6"/>
	<line class="st45" x1="26.5" y1="74.5" x2="20" y2="81.1"/>
</g>
</svg>
