<svg version="1.1" id="Layer_1" xmlns="http://www.w3.org/2000/svg" xmlns:xlink="http://www.w3.org/1999/xlink" x="0px" y="0px"
	 viewBox="0 0 100 100" style="enable-background:new 0 0 100 100;" xml:space="preserve">
<style type="text/css">
	.st1{fill:#EAB049;}
	.st28{fill:#FCB47E;}	
	.st84{fill:#AD6636;}
	.st85{fill:#E2935D;}
	.st87{fill:#E57B4C;}
	.st88{fill:#FFD180;}
</style>
<g>
	<path class="st1" d="M36.5,23.4C35.1,43,50.3,48,50,47.8c-1.4-2.9-13.5-24.4,0-46.5C54.6,19.8,75.8,31.8,75.8,52
		c0,13-11.7,23.6-25.8,23.6S24.2,65,24.2,52C24.2,43.3,28.1,29.4,36.5,23.4"/>
	<path class="st84" d="M20.3,40.6C20.3,40.6,20.3,40.6,20.3,40.6C20.3,40.6,20.3,40.6,20.3,40.6c-0.3-0.1-0.6-0.2-0.9-0.3
		c-0.1,0-0.1,0-0.2-0.1C19,40.1,18.7,40,18.4,40c-0.1,0-0.1,0-0.2,0c-0.3-0.1-0.6-0.1-0.9-0.1c0,0,0,0-0.1,0c-0.3,0-0.6,0-0.9,0
		c0,0-0.1,0-0.1,0c-0.3,0-0.6,0-0.9,0.1c-0.1,0-0.1,0-0.2,0c-0.3,0-0.6,0.1-0.9,0.2c0,0-0.1,0-0.1,0c-0.3,0.1-0.6,0.2-0.9,0.3
		c0,0-0.1,0-0.1,0c-0.3,0.1-0.6,0.2-0.9,0.4c-0.1,0-0.1,0.1-0.2,0.1c-0.3,0.1-0.6,0.3-0.8,0.4c0,0-0.1,0-0.1,0.1
		c-0.1,0.1-0.3,0.1-0.4,0.2l0,0c-1.6,1-3.1,2.5-4.2,4.3l0,0c0,0,0,0,0,0.1c-0.1,0.2-0.2,0.3-0.3,0.5C6.2,46.7,6,47,5.9,47.3
		C3,53.4,4.9,60.2,10,62.6l69.7,32.5l10.3-22L20.3,40.6z"/>
	<g>
		<polygon class="st85" points="13.6,88.4 14.2,84 7.7,91.2 		"/>
		<path class="st84" d="M94.1,47.3c-0.1-0.3-0.3-0.6-0.5-0.9c-0.1-0.2-0.2-0.3-0.3-0.5c0,0,0,0,0-0.1l0,0c-1.1-1.8-2.5-3.3-4.2-4.3
			l0,0l0,0c-0.1,0-0.1-0.1-0.2-0.1c-0.2-0.1-0.5-0.3-0.7-0.4c-0.1-0.1-0.3-0.1-0.4-0.2c-0.3-0.1-0.5-0.2-0.8-0.3
			c-0.1,0-0.2-0.1-0.3-0.1c-0.4-0.1-0.7-0.2-1.1-0.3c-0.1,0-0.2,0-0.2,0c-0.3-0.1-0.6-0.1-0.9-0.2c-0.1,0-0.3,0-0.4,0
			c-0.2,0-0.5,0-0.7,0c-0.1,0-0.3,0-0.4,0c-0.2,0-0.5,0-0.7,0.1c-0.1,0-0.3,0-0.4,0.1c-0.3,0-0.5,0.1-0.8,0.2
			c-0.1,0-0.2,0.1-0.4,0.1c-0.4,0.1-0.7,0.2-1.1,0.4c0,0,0,0,0,0l0,0L10,73.1l10.3,22L90,62.6C95.1,60.2,97,53.4,94.1,47.3z"/>
		<path class="st28" d="M14.2,84.1l-6,6.7c-0.6-0.8-1.2-1.7-1.7-2.7C4,82.4,5.6,76,10.4,73.8c4.7-2.2,10.7,0.6,13.3,6.3
			c2.6,5.7,1,12.1-3.8,14.3c-2.3,1.1-5,0.9-7.4-0.2L14.2,84.1z"/>
		<path class="st84" d="M24.5,79.8c-2.8-6.1-9.3-9.1-14.4-6.7c-5.1,2.4-7,9.2-4.2,15.3c0.5,1.1,1.1,2,1.8,2.9l2.2-1.9
			c-0.5-0.7-1-1.4-1.3-2.2c-2.2-4.6-0.9-9.8,2.8-11.6c3.7-1.7,8.5,0.6,10.6,5.3c2.2,4.6,0.9,9.8-2.8,11.6c-1.8,0.8-3.8,0.7-5.8-0.2
			l-0.3-0.2l-0.2,1.3c0,0,0,0,0,0L12.4,95c2.6,1.1,5.4,1.3,7.9,0.1C25.4,92.8,27.3,85.9,24.5,79.8z"/>
	</g>
	<path class="st28" d="M80.1,94.4c-4.7-2.2-6.4-8.6-3.8-14.3c2.6-5.7,8.6-8.5,13.3-6.3c4.7,2.2,6.4,8.6,3.8,14.3
		C90.8,93.8,84.8,96.6,80.1,94.4z"/>
	<path class="st84" d="M90,73.1c-5.1-2.4-11.6,0.6-14.4,6.7c-2.8,6.1-1,12.9,4.2,15.3c5.1,2.4,11.6-0.6,14.4-6.7
		C97,82.4,95.1,75.5,90,73.1z M91.5,87.2C90,90.5,87.1,92.7,84,93c-1.1,0.1-2.1-0.1-3.1-0.5c-3.7-1.7-4.9-6.9-2.8-11.5
		c1.5-3.3,4.4-5.5,7.5-5.8c1.1-0.1,2.1,0.1,3.1,0.5c1.7,0.8,2.9,2.4,3.5,4.5C92.8,82.4,92.6,84.9,91.5,87.2z"/>
	<polygon class="st85" points="84.7,83.7 83.7,75.7 72.4,71 	"/>
	<path class="st87" d="M36.5,23.4C35.1,43,50.3,48,50,47.8c-1.4-2.9-13.5-24.4,0-46.5C54.6,19.8,75.8,31.8,75.8,52
		c0,13-11.7,23.6-25.8,23.6S24.2,65,24.2,52C24.2,43.3,28.1,29.4,36.5,23.4"/>
	<g>
		<path class="st88" d="M40.4,40c-3.7,4.6-5.6,9.3-5.6,14c0,5.3,6.8,11.8,15.3,11.8c4.5,0,9.1-1.9,12.1-5c2-2.1,3.2-4.5,3.1-6.7
			c-0.2-7.8-5.9-12.8-12.6-18.7c-3-2.7-6.2-5.4-8.8-8.5c0.7,9.1,3.9,16.3,5.5,19.5c0.3,0.5-0.3,1.1-0.8,0.8
			C46.5,46.2,43.1,44,40.4,40z"/>
		<polygon class="st88" points="38.9,37.4 38.9,37.4 38.9,37.4 		"/>
	</g>
</g>
</svg>
