<svg xmlns="http://www.w3.org/2000/svg" width="100" height="100" viewBox="0 0 100 100">
  <path d="M15.41,96.69l-1.09-4.13a130.89,130.89,0,0,1-2.4-24.7A39,39,0,0,1,14,55a1.67,1.67,0,0,0,.1-.56V14.65C14.14,10,17.5,4.48,21.7,2.53c10.52-4.9,20.85,2.71,20.85,12.68v8.3a.08.08,0,0,0,.08.08h3.31a13.85,13.85,0,0,1,8,2.53,1.65,1.65,0,0,0,1.43.23,14,14,0,0,1,4.09-.61h.57A13.92,13.92,0,0,1,69,29a1.58,1.58,0,0,0,1.38.33A13.9,13.9,0,0,1,73.59,29h1.6a12.9,12.9,0,0,1,12.9,12.9v8.56a13.85,13.85,0,0,1-1.47,6.24A1.75,1.75,0,0,0,86.49,58a38.39,38.39,0,0,1,1.6,11,111.9,111.9,0,0,1-2.46,23.77l-1.2,3.94s-7.05,2.18-33.32,2.18S15.41,96.69,15.41,96.69Z" fill="#75c69f"/>
  <path d="M84,43.22a10.16,10.16,0,0,0-15.62-8.57A10.13,10.13,0,0,0,53.8,31.74,10.13,10.13,0,0,0,38.5,30.6V15.21a10.16,10.16,0,1,0-20.32,0V55.28A33.21,33.21,0,0,0,16,67.87a128,128,0,0,0,2.25,23.57,1.5,1.5,0,0,0,1.47,1.2,1.52,1.52,0,0,0,.31,0,1.5,1.5,0,0,0,1.17-1.77,127.44,127.44,0,0,1-2.19-23C19,62.34,20.35,49,33.11,45c4.13-1.23,7.29-1.25,9.4-.07a6.7,6.7,0,0,1,3.06,4.47c1.11,4.28-1.32,8-6.06,9.22l-3.26.83A1.5,1.5,0,1,0,37,62.34l3.27-.83a12.28,12.28,0,0,0,5.89-3.33c2.09.59,4.53,1.7,5.82,3.79a1.5,1.5,0,1,0,2.55-1.57,12,12,0,0,0-6.6-4.8,9.56,9.56,0,0,0,.41-1A10.11,10.11,0,0,0,51.63,53a10.13,10.13,0,0,0,13.59,2.48,10.2,10.2,0,0,0,8.66,4.86,10.09,10.09,0,0,0,5.44-1.6A31.42,31.42,0,0,1,81,69a108.36,108.36,0,0,1-2.18,21.82,1.5,1.5,0,0,0,2.92.67A109.23,109.23,0,0,0,84,69a34.39,34.39,0,0,0-2.3-12.37A10.11,10.11,0,0,0,84,50.18Zm-51.81-1.1a22.38,22.38,0,0,0-11,7.82V15.21a7.16,7.16,0,1,1,14.32,0V41.34A27.77,27.77,0,0,0,32.22,42.12ZM44,42.3a10.8,10.8,0,0,0-5.47-1.24V37.8a7.16,7.16,0,0,1,14.32,0v7a7.14,7.14,0,0,1-4,6.43,11.19,11.19,0,0,0-.35-2.56A9.66,9.66,0,0,0,44,42.3Zm9.82,8.55a10.14,10.14,0,0,0,2-6.09v-7a10.1,10.1,0,0,0-.59-3.38,7.09,7.09,0,0,1,4.54-1.62A7.17,7.17,0,0,1,66.93,40v7A7.15,7.15,0,0,1,53.8,50.85Zm13.73,2.61a10.11,10.11,0,0,0,2.4-6.54V40a10.12,10.12,0,0,0-.32-2.48A7.15,7.15,0,0,1,81,43.22v7A7.12,7.12,0,0,1,79.19,55a1.48,1.48,0,0,0-.49.5,7.13,7.13,0,0,1-11.17-2Z" fill="#f2f2f2"/>
  <path d="M33.73,82.64V80H36.8l.7-3H34.85v-2.7H38L39.1,69.4h3L41,74.24h2.75l1.07-4.85h2.92l-1.12,4.85h2.27v2.7H46.11l-.65,3h2.6v2.67H44.79l-.9,4.15H41l.9-4.15H39.1l-.87,4.15H35.3l.87-4.15Zm6-2.65h2.82l.7-3H40.37Z" fill="#f2f2f2"/>
  <path d="M52.41,86.78V83h3.8V75h-3.8V72.1a13.73,13.73,0,0,0,5.47-1.75q.85-.47,1.55-.95H61.1V83h3.65v3.82Z" fill="#f2f2f2"/>
</svg>
