<svg id="Layer_1" data-name="Layer 1" xmlns="http://www.w3.org/2000/svg" viewBox="0 0 100 100"><polygon points="36.26 29.36 6.89 15.59 36.2 2.04 36.26 29.36" fill="#fc5959"/><path d="M8.61,82.56s0.23-4.62,1-5.1c0.58-.37,1.86.36,2.58,0s0.78-2.65,1.49-2.93,1.72,1.59,2.43,1.36,1-2.53,1.67-2.74,1.65,1.75,2.35,1.57,1.07-2.46,1.77-2.62,1.59,1.85,2.29,1.71S25.3,71.42,26,71.3s1.55,1.92,2.24,1.81,1.19-2.36,1.89-2.45,1.51,2,2.21,1.89,1.24-2.31,1.93-2.39,1.48,2,2.17,2,1.27-2.28,2-2.33,1.45,2.06,2.14,2,1.31-2.24,2-2.28,1.42,2.1,2.12,2.08,1.34-2.21,2-2.23,1.4,2.14,2.09,2.13,1.37-2.18,2.06-2.18,1.37,2.17,2.06,2.18,1.4-2.14,2.09-2.13,1.35,2.2,2,2.23,1.43-2.11,2.11-2.08,1.32,2.23,2,2.28,1.46-2.07,2.14-2,1.29,2.27,2,2.33,1.5-2,2.18-2,1.25,2.31,1.93,2.39,1.53-2,2.21-1.89,1.21,2.35,1.89,2.45,1.57-1.93,2.25-1.81,1.17,2.39,1.83,2.52,1.63-1.86,2.29-1.71,1.11,2.45,1.77,2.62S83.3,73,84,73.15s1,2.52,1.67,2.74,1.8-1.61,2.43-1.36,0.88,2.63,1.5,2.93,2-.38,2.58,0c0.75,0.48,1,4.21,1,5.1" fill="#75c69f"/><ellipse cx="50.86" cy="82.56" rx="42.25" ry="10.92" fill="#75c69f"/><path d="M91.34,83.68c-0.54.49-.56,2.51-1.36,3-0.62.37-1.85-1.3-2.62-.95s-0.93,2.66-1.68,2.94S83.93,87,83.18,87.26,82.09,89.8,81.35,90s-1.68-1.77-2.42-1.6S77.75,90.85,77,91s-1.62-1.87-2.36-1.74-1.25,2.39-2,2.51-1.59-1.94-2.32-1.84-1.3,2.34-2,2.43-1.55-2-2.28-1.92S64.7,92.73,64,92.8s-1.52-2-2.25-2-1.37,2.26-2.11,2.3S58.12,91,57.39,91,56,93.25,55.25,93.27s-1.47-2.13-2.2-2.12-1.44,2.18-2.17,2.18-1.45-2.17-2.16-2.18-1.47,2.14-2.19,2.12S45.11,91.06,44.39,91s-1.51,2.1-2.22,2.06-1.39-2.25-2.11-2.3-1.54,2.06-2.25,2-1.36-2.29-2.07-2.36-1.57,2-2.29,1.92-1.32-2.33-2-2.43-1.61,1.95-2.32,1.84-1.28-2.38-2-2.51S25.45,91.14,24.75,91s-1.23-2.44-1.92-2.61S21.1,90.18,20.41,90s-1.15-2.52-1.83-2.74-1.82,1.63-2.49,1.39-1-2.64-1.69-2.94-2,1.32-2.62.95c-0.79-.47-0.7-2.84-1.23-3.35-0.88-.84-1.61,1.75-1.93-0.74v5c0,3,6.83,5.9,11.8,7.18,8.17,2.11,19,3.29,30.45,3.29s22.28-1.18,30.45-3.29c5-1.29,11.8-3.53,11.8-8.31V82.64C92.88,84.34,92.3,82.79,91.34,83.68Z" fill="#6a8"/><ellipse cx="37.46" cy="81.61" rx="9.98" ry="2.43" fill="#4d4d4d"/><circle cx="68.21" cy="78.94" r="5.69" fill="#fff"/><circle cx="64.51" cy="78.56" r="0.71" fill="#e6e6e6"/><circle cx="67.8" cy="82.73" r="0.71" fill="#e6e6e6"/><circle cx="67.6" cy="79.58" r="0.71" fill="#e6e6e6"/><circle cx="65.23" cy="81.31" r="0.71" fill="#e6e6e6"/><circle cx="70.55" cy="81.45" r="0.71" fill="#e6e6e6"/><circle cx="66.17" cy="76.13" r="0.71" fill="#e6e6e6"/><path d="M27.47,81.61c0,0.45.51,0.87,1.39,1.23a25.32,25.32,0,0,1,8.59-1.2,25.3,25.3,0,0,1,8.6,1.2c0.88-.36,1.39-0.78,1.39-1.24a1.63,1.63,0,0,0-1.21-1.16l-0.5-.2a19.9,19.9,0,0,0-4.57-.9c-1.15-.11-2.4-0.18-3.71-0.18a31.26,31.26,0,0,0-7.06.71l-0.64.17a7.91,7.91,0,0,0-1.22.46A1.51,1.51,0,0,0,27.47,81.61Z" fill="#6a8"/><path d="M38.9,84s-0.61,0-1.37,0-1.37,0-1.37,0V1.95H38.9V84Z" fill="#fff"/></svg>