<?xml version="1.0" encoding="iso-8859-1"?>
<!-- Generator: Adobe Illustrator 12.0.1, SVG Export Plug-In . SVG Version: 6.00 Build 51448)  -->
<!DOCTYPE svg PUBLIC "-//W3C//DTD SVG 1.1//EN" "http://www.w3.org/Graphics/SVG/1.1/DTD/svg11.dtd" [
	<!ENTITY ns_svg "http://www.w3.org/2000/svg">
	<!ENTITY ns_xlink "http://www.w3.org/1999/xlink">
]>
<svg  version="1.1" id="Layer_1" xmlns="&ns_svg;" xmlns:xlink="&ns_xlink;" width="300" height="285.3" viewBox="0 0 300 285.3"
	 style="overflow:visible;enable-background:new 0 0 300 285.3;" xml:space="preserve">
<polygon style="fill:#FFFF80;" points="150,47.6 180.9,110.2 250,120.2 200,168.9 211.8,237.8 150,205.3 88.2,237.8 100,168.9 
	50,120.2 119.1,110.2 "/>
<g>
	<path style="fill:#FFFF80;" d="M150,0l-46.4,93.9L0,109l2.9,2.8l0,0l0.7,0.7l0,0L75,182.1l0,0l0,0L57.3,285.3l3.5-1.9l0,0l0.9-0.5
		l0,0l88.2-46.4l88.2,46.4l0,0l0.9,0.5l0,0l3.5,1.9L225,182.1l0,0l0,0l71.4-69.6l0,0l0.7-0.7l0,0l2.9-2.8L196.4,93.9L150,0L150,0z
		 M8.6,111.8l95.6-13.9l2.1-0.3l0.9-1.9L150,9l42.8,86.7l0.9,1.9l2.1,0.3l95.6,13.9l-69.2,67.5l-1.5,1.5l0.4,2.1l16.3,95.2l-85.5-45
		l-1.9-1l-1.9,1l-85.5,45l16.3-95.2l0.4-2.1l-1.5-1.5L8.6,111.8L8.6,111.8z"/>
</g>
<g>
	<path style="fill:#FFFF80;" d="M150,23.8L111.4,102L25,114.6l2.9,2.8l0,0l0.7,0.7l0,0l58.9,57.4l0,0l0,0l-14.8,86l3.5-1.9l0,0
		l0.9-0.5l0,0l72.8-38.3l72.8,38.3l0,0l0.9,0.5l0,0l3.5,1.9l-14.8-86l0,0l0,0l58.9-57.4l0,0l0.7-0.7l0,0l2.9-2.8L188.6,102L150,23.8
		L150,23.8z M33.6,117.4l78.4-11.4l2.1-0.3l0.9-1.9l35-71l35,71l0.9,1.9l2.1,0.3l78.4,11.4l-56.7,55.3l-1.5,1.5l0.4,2.1l13.4,78
		l-70.1-36.8l-1.9-1l-1.9,1l-70.1,36.8l13.4-78l0.4-2.1l-1.5-1.5L33.6,117.4L33.6,117.4z"/>
</g>
</svg>
